<?xml version="1.0" encoding="utf-8"?>
<!-- Generator: Adobe Illustrator 15.0.0, SVG Export Plug-In . SVG Version: 6.00 Build 0)  -->
<!DOCTYPE svg PUBLIC "-//W3C//DTD SVG 1.1//EN" "http://www.w3.org/Graphics/SVG/1.1/DTD/svg11.dtd" [
	<!ENTITY ns_flows "http://ns.adobe.com/Flows/1.0/">
	<!ENTITY ns_extend "http://ns.adobe.com/Extensibility/1.0/">
	<!ENTITY ns_ai "http://ns.adobe.com/AdobeIllustrator/10.0/">
	<!ENTITY ns_graphs "http://ns.adobe.com/Graphs/1.0/">
]>
<svg version="1.1" id="Layer_1" xmlns:x="&ns_extend;" xmlns:i="&ns_ai;" xmlns:graph="&ns_graphs;"
	 xmlns="http://www.w3.org/2000/svg" xmlns:xlink="http://www.w3.org/1999/xlink" xmlns:a="http://ns.adobe.com/AdobeSVGViewerExtensions/3.0/"
	 x="0px" y="0px" width="26.9px" height="17.8px" viewBox="0 0 26.9 17.8" enable-background="new 0 0 26.9 17.8"
	 xml:space="preserve">
<g>
	<path fill="#FFFFFF" d="M15.9,0.4c-0.8,0-1.2,0.1-1.8,0.4c-0.9,0.3-1.7,0.9-2.4,1.5c-0.4,0.4-0.7,0.7-0.9,1.2
		c-0.1,0.1-0.1,0.2-0.1,0.2c0,0-0.1,0-0.2-0.1c-0.5-0.2-1-0.4-1.6-0.4c-0.2,0-0.9,0-1.1,0c-1,0.1-2,0.7-2.8,1.4
		C4.4,5.2,4.1,5.7,3.8,6.5c-0.2,0.5-0.3,1-0.3,1.3l0,0.1l-0.1,0c0,0-0.1,0.1-0.2,0.1C2.7,8.3,2.3,8.6,1.9,9C1,9.8,0.5,10.8,0.4,12
		c0,0.2,0,0.8,0,1C0.5,14.1,1.1,15.2,2,16c0.7,0.6,1.1,0.9,2,1.1c0.6,0.2,1,0.2,2.9,0.2c2.6,0,12.4,0.1,13.4,0
		c1.8-0.1,2.4-0.1,3.1-0.4c0.4-0.2,0.8-0.4,1.1-0.6c1.1-0.7,1.8-1.9,2-3.3c0.1-1,0-1.8-0.4-2.7c-0.4-0.9-1.3-1.8-2.3-2.3
		c-0.3-0.1-0.7-0.3-1-0.4l-0.2,0v0c0,0,0-0.1,0-0.2c0.1-0.5,0.1-0.9,0-1.5c-0.2-1.8-1.4-3.6-3-4.6c-0.5-0.3-1.5-0.7-2-0.8
		C17.4,0.4,16.7,0.4,15.9,0.4 M17.3,1.2c0.2,0,0.6,0.1,1,0.3c0.9,0.4,1.4,0.7,2,1.3c0.2,0.2,0.4,0.4,0.5,0.6
		c0.6,0.7,0.9,1.6,1.1,2.5C21.9,6.1,22,6.3,22,6.6c0,0.3,0,0.4,0,0.6c-0.1,0.7-0.1,0.8,0,0.9c0.1,0.1,0.1,0.1,0.5,0.2
		c0.4,0.1,0.5,0.1,0.7,0.2c0.6,0.3,1.2,0.8,1.7,1.3c0.4,0.5,0.7,1.2,0.8,1.9c0,0.2,0,0.8,0,1c-0.2,1.2-0.7,2.2-1.7,2.9
		c-0.4,0.3-1,0.6-1.5,0.7c-0.5,0.1-1.2,0.2-2.7,0.2c-1.1,0-8,0-11.7,0c-2,0-3.1,0-3.5-0.1c-0.4,0-0.9-0.2-1.3-0.4
		c-0.3-0.2-0.6-0.3-0.9-0.7C2,15,1.8,14.7,1.6,14.3c-0.5-1-0.6-2.1-0.2-3.1c0.2-0.6,0.5-1.1,1.1-1.6C2.8,9.2,3.1,9,3.6,8.7
		c0.4-0.2,0.5-0.3,0.6-0.4c0.1-0.1,0.1-0.2,0.1-0.4c0-0.3,0.1-0.7,0.2-1.1C4.7,6.1,5,5.7,5.5,5.3C6,4.7,6.6,4.3,7.3,4.1
		c0.7-0.2,1.7-0.2,2.5,0c0.3,0.1,0.4,0.1,0.8,0.3l0.3,0.2l0.1,0c0.1,0,0.2,0,0.3-0.1c0,0,0.1-0.2,0.2-0.3c0.2-0.4,0.3-0.5,0.5-0.7
		c0.6-0.9,1.7-1.6,2.7-2c0.4-0.2,0.7-0.2,1.3-0.2C16.1,1.1,17.2,1.1,17.3,1.2"/>
	<path fill="none" stroke="#FFFFFF" stroke-width="0.75" stroke-miterlimit="10" d="M15.9,0.4c-0.8,0-1.2,0.1-1.8,0.4
		c-0.9,0.3-1.7,0.9-2.4,1.5c-0.4,0.4-0.7,0.7-0.9,1.2c-0.1,0.1-0.1,0.2-0.1,0.2c0,0-0.1,0-0.2-0.1c-0.5-0.2-1-0.4-1.6-0.4
		c-0.2,0-0.9,0-1.1,0c-1,0.1-2,0.7-2.8,1.4C4.4,5.2,4.1,5.7,3.8,6.5c-0.2,0.5-0.3,1-0.3,1.3l0,0.1l-0.1,0c0,0-0.1,0.1-0.2,0.1
		C2.7,8.3,2.3,8.6,1.9,9C1,9.8,0.5,10.8,0.4,12c0,0.2,0,0.8,0,1C0.5,14.1,1.1,15.2,2,16c0.7,0.6,1.1,0.9,2,1.1
		c0.6,0.2,1,0.2,2.9,0.2c2.6,0,12.4,0.1,13.4,0c1.8-0.1,2.4-0.1,3.1-0.4c0.4-0.2,0.8-0.4,1.1-0.6c1.1-0.7,1.8-1.9,2-3.3
		c0.1-1,0-1.8-0.4-2.7c-0.4-0.9-1.3-1.8-2.3-2.3c-0.3-0.1-0.7-0.3-1-0.4l-0.2,0v0c0,0,0-0.1,0-0.2c0.1-0.5,0.1-0.9,0-1.5
		c-0.2-1.8-1.4-3.6-3-4.6c-0.5-0.3-1.5-0.7-2-0.8C17.4,0.4,16.7,0.4,15.9,0.4z M17.3,1.2c0.2,0,0.6,0.1,1,0.3c0.9,0.4,1.4,0.7,2,1.3
		c0.2,0.2,0.4,0.4,0.5,0.6c0.6,0.7,0.9,1.6,1.1,2.5C21.9,6.1,22,6.3,22,6.6c0,0.3,0,0.4,0,0.6c-0.1,0.7-0.1,0.8,0,0.9
		c0.1,0.1,0.1,0.1,0.5,0.2c0.4,0.1,0.5,0.1,0.7,0.2c0.6,0.3,1.2,0.8,1.7,1.3c0.4,0.5,0.7,1.2,0.8,1.9c0,0.2,0,0.8,0,1
		c-0.2,1.2-0.7,2.2-1.7,2.9c-0.4,0.3-1,0.6-1.5,0.7c-0.5,0.1-1.2,0.2-2.7,0.2c-1.1,0-8,0-11.7,0c-2,0-3.1,0-3.5-0.1
		c-0.4,0-0.9-0.2-1.3-0.4c-0.3-0.2-0.6-0.3-0.9-0.7C2,15,1.8,14.7,1.6,14.3c-0.5-1-0.6-2.1-0.2-3.1c0.2-0.6,0.5-1.1,1.1-1.6
		C2.8,9.2,3.1,9,3.6,8.7c0.4-0.2,0.5-0.3,0.6-0.4c0.1-0.1,0.1-0.2,0.1-0.4c0-0.3,0.1-0.7,0.2-1.1C4.7,6.1,5,5.7,5.5,5.3
		C6,4.7,6.6,4.3,7.3,4.1c0.7-0.2,1.7-0.2,2.5,0c0.3,0.1,0.4,0.1,0.8,0.3l0.3,0.2l0.1,0c0.1,0,0.2,0,0.3-0.1c0,0,0.1-0.2,0.2-0.3
		c0.2-0.4,0.3-0.5,0.5-0.7c0.6-0.9,1.7-1.6,2.7-2c0.4-0.2,0.7-0.2,1.3-0.2C16.1,1.1,17.2,1.1,17.3,1.2z"/>
	<path fill="#FFFFFF" d="M13.3,6.9c-0.1,0.1-0.6,0.7-1.2,1.3c-1.7,1.8-1.8,1.9-1.8,1.9c0,0,0,0.1,0.1,0.1c0.1,0.1,0.2,0.2,0.3,0.3
		l0.2,0.2l0.2-0.2c0.2-0.3,0.9-1,1.4-1.5c0.2-0.2,0.4-0.5,0.4-0.5c0,0,0,1.2,0,2.7c0,2.6,0,2.7,0,2.8c0,0.1,0.1,0.2,0.2,0.2
		c0.1,0,0.3,0,0.3,0c0.1,0,0.2-0.1,0.2-0.2c0-0.1,0-0.2,0-2.9c0-1.6,0-2.8,0-2.8c0,0,0.2,0.2,1,1.1c0.3,0.3,0.7,0.7,0.9,0.9l0.4,0.4
		l0.1-0.1c0,0,0.2-0.2,0.3-0.3c0.1-0.1,0.2-0.2,0.2-0.2c0,0,0,0-1.3-1.4c-0.5-0.6-1.2-1.2-1.4-1.5c-0.2-0.3-0.4-0.5-0.4-0.5
		C13.4,6.8,13.4,6.8,13.3,6.9"/>
	<path fill="none" stroke="#FFFFFF" stroke-width="0.5" stroke-miterlimit="10" d="M13.3,6.9c-0.1,0.1-0.6,0.7-1.2,1.3
		c-1.7,1.8-1.8,1.9-1.8,1.9c0,0,0,0.1,0.1,0.1c0.1,0.1,0.2,0.2,0.3,0.3l0.2,0.2l0.2-0.2c0.2-0.3,0.9-1,1.4-1.5
		c0.2-0.2,0.4-0.5,0.4-0.5c0,0,0,1.2,0,2.7c0,2.6,0,2.7,0,2.8c0,0.1,0.1,0.2,0.2,0.2c0.1,0,0.3,0,0.3,0c0.1,0,0.2-0.1,0.2-0.2
		c0-0.1,0-0.2,0-2.9c0-1.6,0-2.8,0-2.8c0,0,0.2,0.2,1,1.1c0.3,0.3,0.7,0.7,0.9,0.9l0.4,0.4l0.1-0.1c0,0,0.2-0.2,0.3-0.3
		c0.1-0.1,0.2-0.2,0.2-0.2c0,0,0,0-1.3-1.4c-0.5-0.6-1.2-1.2-1.4-1.5c-0.2-0.3-0.4-0.5-0.4-0.5C13.4,6.8,13.4,6.8,13.3,6.9z"/>
</g>
</svg>
