<?xml version="1.0" encoding="utf-8"?>
<!-- Generator: Adobe Illustrator 15.0.0, SVG Export Plug-In . SVG Version: 6.00 Build 0)  -->
<!DOCTYPE svg PUBLIC "-//W3C//DTD SVG 1.1//EN" "http://www.w3.org/Graphics/SVG/1.1/DTD/svg11.dtd" [
	<!ENTITY ns_flows "http://ns.adobe.com/Flows/1.0/">
	<!ENTITY ns_extend "http://ns.adobe.com/Extensibility/1.0/">
	<!ENTITY ns_ai "http://ns.adobe.com/AdobeIllustrator/10.0/">
	<!ENTITY ns_graphs "http://ns.adobe.com/Graphs/1.0/">
]>
<svg version="1.1" id="Layer_1" xmlns:x="&ns_extend;" xmlns:i="&ns_ai;" xmlns:graph="&ns_graphs;"
	 xmlns="http://www.w3.org/2000/svg" xmlns:xlink="http://www.w3.org/1999/xlink" xmlns:a="http://ns.adobe.com/AdobeSVGViewerExtensions/3.0/"
	 x="0px" y="0px" width="11.3px" height="15px" viewBox="0 0 11.3 15" enable-background="new 0 0 11.3 15" xml:space="preserve">
<g>
	<path fill="#FFFFFF" d="M11.3,2.6c0-0.4-0.3-0.7-0.7-0.7h-2V1.5C8.6,0.7,7.9,0,7.1,0H4.2C3.4,0,2.7,0.7,2.7,1.5v0.3h-2
		C0.3,1.9,0,2.2,0,2.6v1.9h11.3V2.6z M7.6,1.9H3.7V1.5C3.7,1.3,3.9,1,4.2,1h2.9c0.3,0,0.5,0.2,0.5,0.5V1.9z"/>
	<path fill="#FFFFFF" d="M10.1,5.5h-9V15h9V5.5z M7.4,7.4c0-0.3,0.2-0.5,0.5-0.5s0.5,0.2,0.5,0.5v5.5c0,0.3-0.2,0.5-0.5,0.5
		s-0.5-0.2-0.5-0.5V7.4z M5.1,7.4c0-0.3,0.2-0.5,0.5-0.5s0.5,0.2,0.5,0.5v5.5c0,0.3-0.2,0.5-0.5,0.5s-0.5-0.2-0.5-0.5V7.4z M2.9,7.4
		c0-0.3,0.2-0.5,0.5-0.5C3.7,6.8,4,7.1,4,7.4v5.5c0,0.3-0.2,0.5-0.5,0.5c-0.3,0-0.5-0.2-0.5-0.5V7.4z"/>
</g>
</svg>
