<?xml version="1.0" encoding="utf-8"?>
<!-- Generator: Adobe Illustrator 15.0.0, SVG Export Plug-In . SVG Version: 6.00 Build 0)  -->
<!DOCTYPE svg PUBLIC "-//W3C//DTD SVG 1.1//EN" "http://www.w3.org/Graphics/SVG/1.1/DTD/svg11.dtd" [
	<!ENTITY ns_flows "http://ns.adobe.com/Flows/1.0/">
	<!ENTITY ns_extend "http://ns.adobe.com/Extensibility/1.0/">
	<!ENTITY ns_ai "http://ns.adobe.com/AdobeIllustrator/10.0/">
	<!ENTITY ns_graphs "http://ns.adobe.com/Graphs/1.0/">
]>
<svg version="1.1" id="Layer_1" xmlns:x="&ns_extend;" xmlns:i="&ns_ai;" xmlns:graph="&ns_graphs;"
	 xmlns="http://www.w3.org/2000/svg" xmlns:xlink="http://www.w3.org/1999/xlink" xmlns:a="http://ns.adobe.com/AdobeSVGViewerExtensions/3.0/"
	 x="0px" y="0px" width="31.5px" height="20.8px" viewBox="0 0 31.5 20.8" enable-background="new 0 0 31.5 20.8"
	 xml:space="preserve">
<g>
	<path fill="#FFFFFF" d="M18.7,0.4c-0.9,0-1.4,0.1-2.1,0.4c-1,0.4-2,1-2.8,1.8C13.4,3.1,13,3.5,12.7,4c-0.1,0.1-0.1,0.2-0.1,0.2
		c0,0-0.1,0-0.2-0.1c-0.5-0.3-1.2-0.4-1.9-0.5c-0.3,0-1,0-1.3,0C7.9,3.9,6.8,4.5,5.8,5.4C5.1,6.1,4.7,6.7,4.4,7.5
		C4.2,8.1,4.1,8.7,4.1,9.1l0,0.2L4,9.3c0,0-0.2,0.1-0.3,0.1C3.2,9.7,2.7,10,2.1,10.5c-1,1-1.6,2.1-1.8,3.5c0,0.2,0,0.9,0,1.2
		c0.2,1.4,0.8,2.6,1.9,3.6c0.8,0.7,1.3,1,2.3,1.3c0.7,0.2,1.2,0.2,3.4,0.2c3.1,0,14.6,0.1,15.8,0c2.1-0.1,2.8-0.2,3.7-0.5
		c0.5-0.2,1-0.4,1.3-0.7c1.3-0.9,2.1-2.2,2.3-3.8c0.2-1.2,0-2.1-0.5-3.2c-0.5-1.1-1.5-2.1-2.7-2.7c-0.3-0.2-0.8-0.4-1.2-0.5l-0.2,0
		V8.8c0,0,0-0.2,0-0.3c0.1-0.6,0.1-1.1,0-1.7c-0.3-2.2-1.7-4.3-3.5-5.4c-0.6-0.4-1.8-0.8-2.4-1C20.3,0.4,19.5,0.4,18.7,0.4
		 M20.3,1.3c0.3,0,0.7,0.2,1.2,0.4c1.1,0.4,1.7,0.8,2.4,1.5c0.3,0.3,0.4,0.4,0.6,0.7c0.7,0.9,1.1,1.9,1.3,2.9c0.1,0.4,0.1,0.6,0.1,1
		c0,0.3,0,0.4,0,0.7c-0.1,0.8-0.1,0.9,0,1.1c0.1,0.1,0.1,0.1,0.6,0.2c0.5,0.1,0.6,0.2,0.9,0.3c0.7,0.3,1.4,0.9,2,1.5
		c0.5,0.6,0.9,1.5,1,2.3c0,0.3,0,0.9,0,1.2c-0.2,1.5-0.9,2.6-2,3.4c-0.4,0.3-1.2,0.7-1.7,0.8c-0.6,0.2-1.4,0.2-3.2,0.3
		c-1.3,0-9.4,0-13.8,0c-2.4,0-3.6-0.1-4.1-0.1c-0.5-0.1-1.1-0.2-1.5-0.4c-0.4-0.2-0.7-0.4-1.1-0.8c-0.5-0.5-0.7-0.8-1-1.3
		c-0.6-1.1-0.7-2.4-0.3-3.6c0.2-0.7,0.6-1.3,1.2-1.9c0.4-0.4,0.8-0.7,1.4-1C4.6,10,4.7,9.9,4.8,9.7C4.9,9.6,4.9,9.5,5,9.2
		c0-0.4,0.1-0.8,0.3-1.3c0.3-0.8,0.6-1.2,1.1-1.8C7,5.5,7.7,5,8.5,4.8c0.8-0.3,1.9-0.3,2.9,0c0.3,0.1,0.5,0.1,0.9,0.4l0.4,0.2l0.1,0
		c0.1,0,0.2,0,0.3-0.1c0,0,0.1-0.2,0.2-0.4c0.3-0.5,0.4-0.6,0.5-0.8c0.8-1,2-1.9,3.2-2.3c0.5-0.2,0.8-0.2,1.5-0.3
		C18.9,1.3,20.1,1.3,20.3,1.3"/>
	<path fill="none" stroke="#FFFFFF" stroke-width="0.75" stroke-miterlimit="10" d="M18.7,0.4c-0.9,0-1.4,0.1-2.1,0.4
		c-1,0.4-2,1-2.8,1.8C13.4,3.1,13,3.5,12.7,4c-0.1,0.1-0.1,0.2-0.1,0.2c0,0-0.1,0-0.2-0.1c-0.5-0.3-1.2-0.4-1.9-0.5
		c-0.3,0-1,0-1.3,0C7.9,3.9,6.8,4.5,5.8,5.4C5.1,6.1,4.7,6.7,4.4,7.5C4.2,8.1,4.1,8.7,4.1,9.1l0,0.2L4,9.3c0,0-0.2,0.1-0.3,0.1
		C3.2,9.7,2.7,10,2.1,10.5c-1,1-1.6,2.1-1.8,3.5c0,0.2,0,0.9,0,1.2c0.2,1.4,0.8,2.6,1.9,3.6c0.8,0.7,1.3,1,2.3,1.3
		c0.7,0.2,1.2,0.2,3.4,0.2c3.1,0,14.6,0.1,15.8,0c2.1-0.1,2.8-0.2,3.7-0.5c0.5-0.2,1-0.4,1.3-0.7c1.3-0.9,2.1-2.2,2.3-3.8
		c0.2-1.2,0-2.1-0.5-3.2c-0.5-1.1-1.5-2.1-2.7-2.7c-0.3-0.2-0.8-0.4-1.2-0.5l-0.2,0V8.8c0,0,0-0.2,0-0.3c0.1-0.6,0.1-1.1,0-1.7
		c-0.3-2.2-1.7-4.3-3.5-5.4c-0.6-0.4-1.8-0.8-2.4-1C20.3,0.4,19.5,0.4,18.7,0.4z M20.3,1.3c0.3,0,0.7,0.2,1.2,0.4
		c1.1,0.4,1.7,0.8,2.4,1.5c0.3,0.3,0.4,0.4,0.6,0.7c0.7,0.9,1.1,1.9,1.3,2.9c0.1,0.4,0.1,0.6,0.1,1c0,0.3,0,0.4,0,0.7
		c-0.1,0.8-0.1,0.9,0,1.1c0.1,0.1,0.1,0.1,0.6,0.2c0.5,0.1,0.6,0.2,0.9,0.3c0.7,0.3,1.4,0.9,2,1.5c0.5,0.6,0.9,1.5,1,2.3
		c0,0.3,0,0.9,0,1.2c-0.2,1.5-0.9,2.6-2,3.4c-0.4,0.3-1.2,0.7-1.7,0.8c-0.6,0.2-1.4,0.2-3.2,0.3c-1.3,0-9.4,0-13.8,0
		c-2.4,0-3.6-0.1-4.1-0.1c-0.5-0.1-1.1-0.2-1.5-0.4c-0.4-0.2-0.7-0.4-1.1-0.8c-0.5-0.5-0.7-0.8-1-1.3c-0.6-1.1-0.7-2.4-0.3-3.6
		c0.2-0.7,0.6-1.3,1.2-1.9c0.4-0.4,0.8-0.7,1.4-1C4.6,10,4.7,9.9,4.8,9.7C4.9,9.6,4.9,9.5,5,9.2c0-0.4,0.1-0.8,0.3-1.3
		c0.3-0.8,0.6-1.2,1.1-1.8C7,5.5,7.7,5,8.5,4.8c0.8-0.3,1.9-0.3,2.9,0c0.3,0.1,0.5,0.1,0.9,0.4l0.4,0.2l0.1,0c0.1,0,0.2,0,0.3-0.1
		c0,0,0.1-0.2,0.2-0.4c0.3-0.5,0.4-0.6,0.5-0.8c0.8-1,2-1.9,3.2-2.3c0.5-0.2,0.8-0.2,1.5-0.3C18.9,1.3,20.1,1.3,20.3,1.3z"/>
	<path fill="#FFFFFF" d="M15.9,16.4c0.1-0.1,0.7-0.8,1.4-1.5c2-2.1,2.1-2.2,2.1-2.2c0,0-0.1-0.1-0.1-0.1s-0.2-0.2-0.3-0.3l-0.2-0.2
		l-0.2,0.2c-0.3,0.3-1.1,1.2-1.7,1.8c-0.3,0.3-0.5,0.5-0.5,0.5s0-1.4,0-3.2c0-3.1,0-3.2,0-3.3c0-0.1-0.1-0.2-0.2-0.2
		c-0.1,0-0.3,0-0.4,0c-0.1,0-0.2,0.1-0.2,0.2c0,0.1,0,0.2,0,3.4c0,1.8,0,3.3,0,3.3c0,0-0.3-0.3-1.2-1.3c-0.3-0.3-0.8-0.8-1-1.1
		l-0.4-0.5l-0.1,0.1c0,0-0.2,0.2-0.3,0.3c-0.1,0.1-0.2,0.2-0.2,0.2c0,0,0,0,1.5,1.6c0.6,0.7,1.4,1.5,1.6,1.8
		c0.3,0.3,0.5,0.5,0.5,0.5C15.8,16.6,15.8,16.5,15.9,16.4"/>
	<path fill="none" stroke="#FFFFFF" stroke-width="0.5" stroke-miterlimit="10" d="M15.9,16.4c0.1-0.1,0.7-0.8,1.4-1.5
		c2-2.1,2.1-2.2,2.1-2.2c0,0-0.1-0.1-0.1-0.1s-0.2-0.2-0.3-0.3l-0.2-0.2l-0.2,0.2c-0.3,0.3-1.1,1.2-1.7,1.8
		c-0.3,0.3-0.5,0.5-0.5,0.5s0-1.4,0-3.2c0-3.1,0-3.2,0-3.3c0-0.1-0.1-0.2-0.2-0.2c-0.1,0-0.3,0-0.4,0c-0.1,0-0.2,0.1-0.2,0.2
		c0,0.1,0,0.2,0,3.4c0,1.8,0,3.3,0,3.3c0,0-0.3-0.3-1.2-1.3c-0.3-0.3-0.8-0.8-1-1.1l-0.4-0.5l-0.1,0.1c0,0-0.2,0.2-0.3,0.3
		c-0.1,0.1-0.2,0.2-0.2,0.2c0,0,0,0,1.5,1.6c0.6,0.7,1.4,1.5,1.6,1.8c0.3,0.3,0.5,0.5,0.5,0.5C15.8,16.6,15.8,16.5,15.9,16.4z"/>
</g>
</svg>
