<?xml version="1.0" encoding="utf-8"?>
<!-- Generator: Adobe Illustrator 15.0.0, SVG Export Plug-In . SVG Version: 6.00 Build 0)  -->
<!DOCTYPE svg PUBLIC "-//W3C//DTD SVG 1.1//EN" "http://www.w3.org/Graphics/SVG/1.1/DTD/svg11.dtd" [
	<!ENTITY ns_flows "http://ns.adobe.com/Flows/1.0/">
	<!ENTITY ns_extend "http://ns.adobe.com/Extensibility/1.0/">
	<!ENTITY ns_ai "http://ns.adobe.com/AdobeIllustrator/10.0/">
	<!ENTITY ns_graphs "http://ns.adobe.com/Graphs/1.0/">
]>
<svg version="1.1" id="Layer_1" xmlns:x="&ns_extend;" xmlns:i="&ns_ai;" xmlns:graph="&ns_graphs;"
	 xmlns="http://www.w3.org/2000/svg" xmlns:xlink="http://www.w3.org/1999/xlink" xmlns:a="http://ns.adobe.com/AdobeSVGViewerExtensions/3.0/"
	 x="0px" y="0px" width="108px" height="108px" viewBox="0 0 108 108" enable-background="new 0 0 108 108" xml:space="preserve">
<g>
	<ellipse fill="#FFFFFF" cx="55.6" cy="53.6" rx="50.9" ry="51.4"/>
	<polygon fill="#331839" points="76.5,27.7 77.4,27.7 77.7,26.8 77.4,25.9 75.8,25.9 75.5,26.8 75.8,27.4 	"/>
	<polygon fill="#331839" points="46.3,80.3 45.4,80 44.5,80.3 44.5,81 45.7,81.6 46.6,81.9 47.2,81.9 46.9,80.6 	"/>
	<polygon fill="#331839" points="78.6,35.9 78.9,35.3 79.5,34.7 79.8,33.2 80.1,31.6 79.8,31.3 79.5,31 77.7,35.6 76.8,37.7 
		76.1,40.2 76.8,39.9 77.4,39.2 78,37.7 	"/>
	<polygon fill="#331839" points="79.2,27.1 79.5,30.4 80.1,29.8 80.7,28.9 81,28 81,26.8 80.7,25.5 80.4,24.6 79.8,24.3 78.9,24 	
		"/>
	<polygon fill="#331839" points="91.4,56.9 90.8,56.3 90.1,55.1 90.1,56 90.5,56.3 91.1,57.2 92,57.8 92.6,58.4 92.3,57.5 	"/>
	<path fill="#331839" d="M54,0.5C24.5,0.5,0.5,24.5,0.5,54c0,29.5,24,53.5,53.5,53.5c29.5,0,53.5-24,53.5-53.5
		C107.5,24.5,83.5,0.5,54,0.5 M97.8,27.1h0.3L87.7,37.4l-5.2,5.2l-5.2,5.2v-0.6l0.3-0.6l1.2-1.5l2.1-2.4l2.7-2.4l2.7-2.7l0.9-1.2
		l0.9-1.5l2.4-1.8l2.1-2.1l2.4-2.1l1.2-0.6L97.8,27.1z M72.5,26.5l0.6-0.6l1.2-0.6l3-1.2l1.8-0.9l0.6-0.3h0.6l1.2,0.3l0.9,0.9
		l0.6,0.6l0.9,0.9l0.6-0.6L85,24v-0.9l-0.3-0.9l-0.6-0.9l-0.6-0.9l-0.9-0.3h-0.9v-0.6v-0.6v-0.3v-0.3l0.9-0.3h0.9h0.9l0.9-0.3
		l0.3-0.6l0.3-0.6l0.3-0.3l0.6-0.3h0.9l0.9,0.6l0.6,0.6l0.6,0.9l0.6,2.1l0.3,2.1h0.3h0.3l0.3-0.3V21v-0.9l0.3-0.9l-0.3-0.6l-0.3-0.3
		l-0.6-0.3v-0.6l0.9,0.6l0.6,0.9l1.2,1.8l0.9,1.8l0.6,0.9l0.6,0.9l-0.3,0.6v1.2l-0.9,0.6l-1.5,0.3l-0.3,1.2l-0.9,0.6l-1.5,1.5
		l-1.5,1.5L88,32.9l-0.6,1.2h-0.3l-0.3-0.3l-0.3-0.6l0.3-1.5l0.6-2.1l1.2-2.7l0.3-1.2l0.3-1.8l0.3-1.5l-0.6-1.8l-0.3-0.6l-0.9-0.9
		l-0.9-0.3l-0.9,0.3l0.9,1.5l0.6,1.8v0.9L87.1,24l-0.6,0.6l-0.6,0.9v0.6v0.6l-1.5,4.6l-1.8,4.3l-2.1,4L78,43.2h-0.9l-0.9,0.6
		l-1.2,1.5L74,45h-0.3h-0.6v-0.9v-0.6l0.6-1.2v-1.8l0.3-1.8l0.9-4l0.3-2.1v-1.8l-0.3-1.8L74,27.1h-0.9h-0.9L72.5,26.5z M76.5,48.1
		L76.1,49l-0.6,0.6l-0.3-0.3l0.3-0.3l0.6-0.9H76.5z M65.5,35.6l0.9-0.3l0.9,0.3l0.9,0.3l0.6,0.6l0.6,0.9l0.9,1.8l0.6-0.6l0.3-0.9
		v-0.9l-0.6-0.9l-1.2-1.5l-0.9-0.6l-0.6-0.3l1.2,0.3l1.2,0.3l0.6,0.6l0.6,1.2l0.3,1.2l0.3,1.2l-0.3,3l-0.6,3l-0.9,3l-1.2,2.4
		l-0.6,1.8h-0.3l0.3-3.3l0.6-3.7v-1.8v-1.8l-0.3-1.8l-0.9-1.5L67,37.1l-0.9-0.3l-0.9-0.3l-0.9-0.6L65.5,35.6z M60.9,40.2l0.6,0.3
		v0.6h-0.6V40.2z M52.1,47.5l0.9-0.6h2.1l2.4-0.3l0.9-0.3l0.6-0.6h0.3l0.9,1.2l1.2,0.9v0.6h-0.6l-1.2,0.3v0.9l0.3,0.3l0.6,0.3
		l0.3,0.6l-2.4-0.3l-2.4-0.6l-2.7-0.6l-0.9-0.6l-0.9-0.6L52.1,47.5z M21.7,80.3L21,78.8l-0.3-1.2v-1.5v-1.5l0.9-3l0.9-2.4L21.7,80.3
		z M60,102.9l-1.2,0.3l-3,0.3l-3,0.3l-3,0.3l-3-0.3l-2.7-0.6l1.2-0.6l1.5-0.6l1.5-0.3l1.8-0.3h3.3l1.8,0.3h0.3l3,0.3l1.5,0.3
		l0.6,0.3L60,102.9z M80.7,86.4l-0.3,2.7l-1.2,2.7l-1.5,2.4l-0.9,1.2l-1.2,0.9h-0.9l-0.9-0.3l-1.5-0.3l0.3-0.6l0.6-0.6l1.5-1.2
		l1.5-1.5l0.3-0.9v-0.6l-0.3-0.6l-0.3-0.3l-0.9-0.3h-1.5l-1.2,0.6l-2.7,1.5l-1.8,1.5l-3,0.9l-2.7,0.6L59.1,94l-3-0.6l-0.6-0.9
		l-0.3-0.3l-0.6-0.3l-1.8-0.6l-1.5-0.6l-1.5-0.9l-1.8-0.3L47.2,88l-0.6-0.3L46,87.3l-2.1,0.3L42.7,88h-1.2l-0.6-0.6l-0.3-0.6
		l-0.6-1.8v-3v-3l1.2-6.1l1.2-5.8l1.2-5.5l-1.5,0.9l-0.9,1.2l-0.6,1.5l-0.6,1.8l-0.6,4l-0.9,4.3L37.8,77l-0.9,1.5l-0.6,1.8L36,81.9
		v0.9v0.6l0.3,0.9l0.3,0.6l-0.3,0.9L36,86.7l-0.3,0.6L36,88l1.2,0.6l1.2,0.6l1.5,0.6l0.6,0.3l0.3,0.6l-1.5,2.4l-1.5,2.4L36,97.4
		l-2.4,1.8l0.6-1.5l0.9-1.5l0.6-1.8v-1.2v-1.2L35,90.4l-0.9-1.8l-1.2-1.8l-0.6-1.8L32,82.5v-2.1l0.3-4.6v-4.6L32,68.8l-0.6-2.1h-0.6
		l-0.6-0.3l-0.6,0.3l-0.3,0.6v0.9l0.3,1.8v2.1l-0.3,2.1l-0.6,1.8L28,77.9v1.5v1.2l0.6,2.4l0.9,2.4l0.6,2.4l-1.5-0.3L27.1,87
		l-1.2-1.2l-0.6-1.2L25,82.8V81l0.3-4.9l0.3-4.9l0.3-4v-0.6h-0.3l-1.2-0.3l0.9-1.2l0.9-1.2l0.9-0.9l1.2-0.6l2.7-1.5l2.4-1.2l1.8-1.5
		l0.9-0.6l0.9-0.6l2.1-0.6l2.1-0.6l2.1-0.6l0.9-0.6l0.6-0.9l1.2-0.3h1.2l2.1,0.6l1.8,0.6l2.1,0.6h1.2h1.2l2.1-0.6h1.2h1.2l0.9,0.6
		l0.9,0.6l1.2,2.1l-3.3,4.6l-1.5,1.8L56.7,66l-1.5,0.3l-1.2,0.6l-1.2,0.9l-0.6,0.9l-1.2,2.7l-0.9,3l-1.5,4.3L48.1,81v1.8l1.2-0.6
		l1.2-0.6l1.5-0.6l1.5-0.6h2.4l2.4,0.6h1.2l1.2-0.3l0.9-0.3l0.9-0.6l-0.3-1.2l-0.9-0.6l-0.6-0.6L60,76.4v-1.2L59.7,74v-1.2l-0.6-1.2
		l0.9-1.2l0.9-1.2l0.6-0.6l0.3-0.6v-0.9L61.5,66L60,67.3l-1.5,1.5l-2.7,3.7L53,75.8l-2.7,3.3l0.9-2.4l1.2-2.1l3-4l3.3-3.7l3.3-3.7
		l2.1-2.4l2.1-2.4l3.7-3.7l3-4h0.3H74v0.3L64,61.8l-1.5,1.8l-0.6,1.2V66l1.5-0.6l1.2-0.9L67,63l2.4,3.3l2.7,3l1.5,1.2l1.8,1.2
		l2.1,0.9l2.1,0.9l0.6,3l0.3,3.3l0.3,3L80.7,86.4z M104.2,51.4l-0.6,1.8h-1.2l-0.9,0.3h-0.3l-0.3-0.3l-0.6-0.6h-0.6l-0.3,0.3
		L99,53.6h-0.6h-0.3l-0.3-0.6V52l-0.3-0.9l-0.3-0.6h-0.3l-0.6,0.3l-0.3,0.6l0.3,1.2l0.3,1.8v0.6L96.2,56l-0.6,0.3h-0.9v1.2l-0.3,0.9
		L93.8,59l-0.9,0.3l-1.8,0.3h-2.1l-0.6,0.3l-0.6,0.9l-0.6,0.6h-0.3h-0.6l-0.9-1.5l-0.9-1.2l-1.2-0.9l-1.5-0.9L80.1,56l-1.5-0.3
		l-2.1-0.6h-2.1l1.8-1.2l0.9-0.9h2.4H81l1.2-0.3V52v-0.3l-0.6-0.6l-0.9-0.3l-0.3-0.3l1.5-0.6l1.5-0.3H85l1.5,0.6l0.6,0.9l0.6,0.3
		l0.6,0.3l0.3-0.9v-0.6l-0.3-0.6L88,49l-0.9-1.2l-0.3-0.3v-0.6l-0.9-0.3h-1.5l-2.4,0.9l0.3-0.6l0.3-0.3l1.2-0.3l1.2-0.3l0.6-0.3
		l0.3-0.6l-0.3-0.6L85,44.1h-0.6l0.6-0.3l0.9-0.3h0.9l0.6,0.3l0.3-0.3H88v-0.9l-0.6-0.3l-1.2-0.6l0.6-0.6h0.6l1.8-0.3h1.8l0.6-0.3
		l0.6-0.3h2.1l1.5-0.6l-0.3-0.6L95,38.6l-0.6-0.3L94.1,38l1.8-0.3l1.8-0.3l0.3-0.9h-1.8l-1.5,0.3l3.3-2.1l0.3-0.6h0.3l0.6,0.3
		l0.3,0.3l1.2,0.3h0.6l0.3-0.3l0.6,0.6v0.6v1.2v0.6l0.6,0.3l0.3,0.3l0.3,0.3h-0.3v0.6h-0.6l-0.6-0.3l-0.3,0.3h0.3l0.9,3l1.2,3.7
		l0.3,1.8v1.8L104.2,51.4z"/>
</g>
</svg>
