<?xml version="1.0" encoding="utf-8"?>
<!-- Generator: Adobe Illustrator 15.0.0, SVG Export Plug-In . SVG Version: 6.00 Build 0)  -->
<!DOCTYPE svg PUBLIC "-//W3C//DTD SVG 1.1//EN" "http://www.w3.org/Graphics/SVG/1.1/DTD/svg11.dtd">
<svg version="1.1" id="Layer_1" xmlns="http://www.w3.org/2000/svg" xmlns:xlink="http://www.w3.org/1999/xlink" x="0px" y="0px"
	 width="136px" height="18px" viewBox="0.208 0 136 18" enable-background="new 0.208 0 136 18" xml:space="preserve">
<path fill="#FFFFFF" d="M17.7,5.3c-0.2-1.5-1.6-2.9-3.1-3.1c0,0-1.4-0.4-5.5-0.4S3.5,2.2,3.5,2.2C2,2.3,0.5,3.8,0.3,5.3
	C0.3,5.3,0,6.6,0,9c0,2.4,0.3,3.7,0.3,3.7c0.2,1.5,1.6,2.899,3.2,3.1c0,0,2.2,0.4,5.5,0.4s5.5-0.4,5.5-0.4c1.5-0.2,2.9-1.6,3.1-3.1
	c0,0,0.3-1.5,0.3-3.7C18,6.8,17.7,5.3,17.7,5.3 M12.1,9.5l-4.5,2.7c-0.4,0.3-0.8,0.1-0.8-0.4V6.2c0-0.5,0.4-0.7,0.8-0.4l4.5,2.7
	C12.5,8.8,12.5,9.2,12.1,9.5"/>
<path fill="#FFFFFF" d="M89.7,4c0-0.7,0.5-0.9,0.8-0.9h2V0h-2.8C86.6,0,86,2.3,86,3.8v2.1h-1.8V9H86v9h3.7V9h2.5l0.3-3.2h-2.8V4z"/>
<path fill="#FFFFFF" d="M57.1,2c-0.699,0.4-1.5,0.7-2.3,0.9c-0.7-0.7-1.6-1.2-2.7-1.2c-2,0-3.699,1.6-3.699,3.7c0,0.3,0,0.6,0.1,0.8
	c-3.1-0.2-5.8-1.6-7.6-3.8c-0.3,0.5-0.5,1.2-0.5,1.8c0,1.3,0.6,2.4,1.6,3.1c-0.6,0-1.2-0.2-1.7-0.5l0,0c0,1.8,1.3,3.3,2.9,3.601
	c-0.3,0.1-0.6,0.1-1,0.1c-0.2,0-0.5,0-0.7-0.1c0.5,1.5,1.8,2.5,3.4,2.5c-1.3,1-2.8,1.6-4.6,1.6c-0.3,0-0.6,0-0.9-0.1
	C41,15.4,43,16,45,16c6.8,0,10.4-5.6,10.4-10.4c0-0.2,0-0.3,0-0.5c0.699-0.5,1.3-1.2,1.8-1.9C57,3.7,56.3,3.9,55.5,4
	C56.3,3.6,56.9,2.9,57.1,2"/>
<g>
	<path fill="#FFFFFF" d="M126.744,1.622c2.406,0,2.688,0.009,3.638,0.053c0.878,0.041,1.354,0.186,1.671,0.31
		c0.42,0.163,0.72,0.359,1.036,0.674c0.314,0.314,0.509,0.614,0.672,1.035c0.124,0.316,0.271,0.793,0.312,1.67
		c0.043,0.949,0.052,1.234,0.052,3.638c0,2.402-0.009,2.685-0.052,3.632c-0.041,0.883-0.188,1.355-0.312,1.676
		c-0.163,0.42-0.357,0.721-0.672,1.031c-0.316,0.316-0.616,0.514-1.036,0.674c-0.316,0.127-0.793,0.273-1.671,0.311
		c-0.949,0.045-1.231,0.055-3.638,0.055c-2.404,0-2.688-0.01-3.637-0.055c-0.878-0.037-1.354-0.184-1.67-0.311
		c-0.421-0.16-0.722-0.357-1.037-0.674c-0.314-0.311-0.509-0.611-0.672-1.031c-0.124-0.32-0.271-0.793-0.311-1.676
		c-0.043-0.947-0.053-1.23-0.053-3.632c0-2.403,0.01-2.688,0.053-3.638c0.039-0.877,0.187-1.354,0.311-1.67
		c0.163-0.42,0.357-0.72,0.672-1.035c0.315-0.315,0.616-0.511,1.037-0.674c0.315-0.124,0.792-0.269,1.67-0.31
		C124.057,1.631,124.34,1.622,126.744,1.622 M126.744,0c-2.445,0-2.75,0.011-3.71,0.054c-0.959,0.044-1.612,0.196-2.185,0.419
		c-0.592,0.23-1.095,0.538-1.593,1.038c-0.503,0.5-0.811,1.002-1.04,1.594c-0.221,0.571-0.374,1.226-0.418,2.184
		c-0.043,0.96-0.055,1.267-0.055,3.711c0,2.447,0.012,2.751,0.055,3.71c0.044,0.959,0.197,1.609,0.418,2.186
		c0.229,0.59,0.537,1.092,1.04,1.592c0.498,0.5,1.001,0.807,1.593,1.041c0.572,0.219,1.226,0.373,2.185,0.418
		c0.96,0.041,1.265,0.055,3.71,0.055c2.446,0,2.752-0.014,3.711-0.055c0.959-0.045,1.612-0.199,2.185-0.418
		c0.592-0.234,1.095-0.541,1.593-1.041c0.503-0.5,0.811-1.002,1.04-1.592c0.223-0.576,0.374-1.227,0.418-2.186
		c0.045-0.959,0.054-1.264,0.054-3.71c0-2.445-0.009-2.751-0.054-3.711c-0.044-0.958-0.195-1.613-0.418-2.184
		c-0.229-0.592-0.537-1.094-1.04-1.594c-0.498-0.5-1.001-0.808-1.593-1.038c-0.572-0.223-1.226-0.375-2.185-0.419
		C129.496,0.011,129.19,0,126.744,0L126.744,0z"/>
	<path fill="#FFFFFF" d="M126.744,4.378c-2.552,0-4.621,2.069-4.621,4.622c0,2.554,2.069,4.623,4.621,4.623
		c2.553,0,4.622-2.068,4.622-4.623C131.366,6.447,129.297,4.378,126.744,4.378z M126.744,11.998c-1.656,0-2.999-1.342-2.999-2.998
		c0-1.657,1.343-3,2.999-3c1.658,0,3,1.343,3,3C129.744,10.656,128.402,11.998,126.744,11.998z"/>
	<circle fill="#FFFFFF" cx="131.549" cy="4.197" r="1.08"/>
</g>
</svg>
