<?xml version="1.0" encoding="utf-8"?>
<!-- Generator: Adobe Illustrator 15.0.0, SVG Export Plug-In . SVG Version: 6.00 Build 0)  -->
<!DOCTYPE svg PUBLIC "-//W3C//DTD SVG 1.1//EN" "http://www.w3.org/Graphics/SVG/1.1/DTD/svg11.dtd" [
	<!ENTITY ns_flows "http://ns.adobe.com/Flows/1.0/">
	<!ENTITY ns_extend "http://ns.adobe.com/Extensibility/1.0/">
	<!ENTITY ns_ai "http://ns.adobe.com/AdobeIllustrator/10.0/">
	<!ENTITY ns_graphs "http://ns.adobe.com/Graphs/1.0/">
]>
<svg version="1.1" id="Layer_1" xmlns:x="&ns_extend;" xmlns:i="&ns_ai;" xmlns:graph="&ns_graphs;"
	 xmlns="http://www.w3.org/2000/svg" xmlns:xlink="http://www.w3.org/1999/xlink" xmlns:a="http://ns.adobe.com/AdobeSVGViewerExtensions/3.0/"
	 x="0px" y="0px" width="26.3px" height="26px" viewBox="0 0 26.3 26" enable-background="new 0 0 26.3 26" xml:space="preserve">
<g>
	<path fill="#FFFFFF" d="M21.1,5.2v-4C21.1,0.5,20.6,0,20,0s-1.1,0.5-1.1,1.1v4c0,0.6,0.5,1.1,1.1,1.1S21.1,5.8,21.1,5.2"/>
	<rect x="4.3" y="15.2" fill="#FFFFFF" width="2.7" height="2.7"/>
	<rect x="8.1" y="18.8" fill="#FFFFFF" width="2.7" height="2.7"/>
	<rect x="8.1" y="15.2" fill="#FFFFFF" width="2.7" height="2.7"/>
	<rect x="15.7" y="15.2" fill="#FFFFFF" width="2.7" height="2.7"/>
	<rect x="15.7" y="18.8" fill="#FFFFFF" width="2.7" height="2.7"/>
	<rect x="8.1" y="11.6" fill="#FFFFFF" width="2.7" height="2.7"/>
	<rect x="11.9" y="15.2" fill="#FFFFFF" width="2.7" height="2.7"/>
	<rect x="11.9" y="11.6" fill="#FFFFFF" width="2.7" height="2.7"/>
	<rect x="19.5" y="11.6" fill="#FFFFFF" width="2.7" height="2.7"/>
	<rect x="15.7" y="11.6" fill="#FFFFFF" width="2.7" height="2.7"/>
	<path fill="#FFFFFF" d="M7.6,5.2v-4C7.6,0.5,7.1,0,6.5,0C5.9,0,5.4,0.5,5.4,1.1v4c0,0.6,0.5,1.1,1.1,1.1C7.1,6.3,7.6,5.8,7.6,5.2"
		/>
	<rect x="11.9" y="18.8" fill="#FFFFFF" width="2.7" height="2.7"/>
	<rect x="19.5" y="15.2" fill="#FFFFFF" width="2.7" height="2.7"/>
	<path fill="#FFFFFF" d="M21.5,3.3c0.5,0.4,0.8,1,0.8,1.7c0,1.2-1,2.2-2.3,2.2s-2.2-1-2.2-2.2c0-0.7,0.3-1.3,0.8-1.7V2.1H8v1.2
		c0.5,0.4,0.8,1,0.8,1.7c0,1.2-1,2.2-2.3,2.2S4.3,6.2,4.3,5c0-0.7,0.3-1.3,0.8-1.7V2.1H0V26h26.3V2.1h-4.8V3.3z M23.9,23.6H2.4v-15
		h21.5V23.6z"/>
	<rect x="4.3" y="18.8" fill="#FFFFFF" width="2.7" height="2.7"/>
</g>
</svg>
