<?xml version="1.0" encoding="utf-8"?>
<!-- Generator: Adobe Illustrator 15.0.0, SVG Export Plug-In . SVG Version: 6.00 Build 0)  -->
<!DOCTYPE svg PUBLIC "-//W3C//DTD SVG 1.1//EN" "http://www.w3.org/Graphics/SVG/1.1/DTD/svg11.dtd" [
	<!ENTITY ns_flows "http://ns.adobe.com/Flows/1.0/">
	<!ENTITY ns_extend "http://ns.adobe.com/Extensibility/1.0/">
	<!ENTITY ns_ai "http://ns.adobe.com/AdobeIllustrator/10.0/">
	<!ENTITY ns_graphs "http://ns.adobe.com/Graphs/1.0/">
]>
<svg version="1.1" id="Layer_1" xmlns:x="&ns_extend;" xmlns:i="&ns_ai;" xmlns:graph="&ns_graphs;"
	 xmlns="http://www.w3.org/2000/svg" xmlns:xlink="http://www.w3.org/1999/xlink" xmlns:a="http://ns.adobe.com/AdobeSVGViewerExtensions/3.0/"
	 x="0px" y="0px" width="194.1px" height="90px" viewBox="0 0 194.1 90" enable-background="new 0 0 194.1 90" xml:space="preserve"
	>
<g>
	<polygon fill="#341939" points="55.9,20 56.5,20 56.8,19.3 56.5,18.6 55.4,18.6 55.2,19.3 55.4,19.8 	"/>
	<polygon fill="#341939" points="33.7,58.7 33,58.5 32.4,58.7 32.4,59.2 33.3,59.6 33.9,59.9 34.4,59.9 34.1,59 	"/>
	<polygon fill="#341939" points="57.4,26 57.7,25.6 58.1,25.1 58.3,24 58.6,22.9 58.3,22.7 58.1,22.5 56.8,25.8 56.1,27.4 
		55.6,29.2 56.1,28.9 56.5,28.5 57,27.4 	"/>
	<polygon fill="#341939" points="57.9,19.5 58.1,22 58.6,21.6 59,20.9 59.2,20.2 59.2,19.3 59,18.4 58.8,17.8 58.3,17.5 57.7,17.3 	
		"/>
	<polygon fill="#341939" points="66.8,41.5 66.4,41 65.9,40.1 65.9,40.8 66.2,41 66.6,41.7 67.3,42.2 67.7,42.6 67.5,41.9 	"/>
	<path fill="#341939" d="M39.4,0C17.6,0,0,17.6,0,39.4c0,21.7,17.6,39.4,39.4,39.4s39.4-17.6,39.4-39.4C78.7,17.6,61.1,0,39.4,0
		 M71.5,19.5h0.2l-7.6,7.6L60.3,31l-3.8,3.8v-0.4l0.2-0.4l0.9-1.1l1.6-1.8l2-1.8l2-2l0.7-0.9l0.7-1.1l1.8-1.3l1.6-1.6l1.8-1.6
		l0.9-0.4L71.5,19.5z M53,19.1l0.4-0.4l0.9-0.4l2.2-0.9l1.3-0.7l0.4-0.2h0.4l0.9,0.2l0.7,0.7l0.4,0.4l0.7,0.7l0.4-0.4l0.2-0.7v-0.7
		L61.9,16l-0.4-0.7L61,14.6l-0.7-0.2h-0.7v-0.4v-0.4v-0.2v-0.2l0.7-0.2H61h0.7l0.7-0.2l0.2-0.4l0.2-0.4l0.2-0.2l0.4-0.2h0.7l0.7,0.4
		l0.4,0.4l0.4,0.7l0.4,1.6l0.2,1.6h0.2h0.2l0.2-0.2v-0.7v-0.7l0.2-0.7l-0.2-0.4l-0.2-0.2l-0.4-0.2v-0.4l0.7,0.4l0.4,0.7l0.9,1.3
		l0.7,1.3l0.4,0.7l0.4,0.7L69.8,18v0.9l-0.7,0.4L68,19.5l-0.2,0.9l-0.7,0.5L65.9,22l-1.1,1.1l-0.4,0.7l-0.4,0.9h-0.2l-0.2-0.2
		L63.3,24l0.2-1.1l0.4-1.6l0.9-2l0.2-0.9l0.2-1.3l0.2-1.1L65,14.6l-0.2-0.4l-0.7-0.7l-0.7-0.2l-0.7,0.2l0.7,1.1l0.4,1.3v0.7
		l-0.2,0.7l-0.4,0.4l-0.4,0.7v0.4v0.4l-1.1,3.4l-1.3,3.1l-1.6,2.9L57,31.4h-0.7l-0.7,0.4L54.7,33l-0.7-0.2h-0.2h-0.4v-0.7v-0.4
		l0.4-0.9v-1.3l0.2-1.3l0.7-2.9l0.2-1.6v-1.3l-0.2-1.3l-0.7-1.3h-0.7h-0.7L53,19.1z M55.9,35l-0.2,0.7l-0.4,0.4L55,35.9l0.2-0.2
		l0.4-0.7H55.9z M47.8,25.8l0.7-0.2l0.7,0.2l0.7,0.2l0.4,0.4l0.4,0.7l0.7,1.3l0.4-0.4l0.2-0.7v-0.7L51.6,26l-0.9-1.1L50,24.5
		l-0.4-0.2l0.9,0.2l0.9,0.2l0.4,0.4l0.4,0.9l0.2,0.9l0.2,0.9l-0.2,2.2l-0.4,2.2l-0.7,2.2l-0.9,1.8L50,37.7h-0.2l0.2-2.5l0.4-2.7
		v-1.3v-1.3l-0.2-1.3l-0.7-1.1l-0.7-0.4l-0.7-0.2l-0.7-0.2L46.9,26L47.8,25.8z M44.4,29.2l0.4,0.2v0.4h-0.4V29.2z M38,34.5l0.7-0.4
		h1.6l1.8-0.2l0.7-0.2l0.4-0.4h0.2l0.7,0.9l0.9,0.7v0.4h-0.4l-0.9,0.2v0.7l0.2,0.2l0.4,0.2l0.2,0.4l-1.8-0.2l-1.8-0.4l-2-0.4
		l-0.7-0.4L37.5,35L38,34.5z M15.6,58.7l-0.4-1.1l-0.2-0.9v-1.1v-1.1l0.7-2.2l0.7-1.8L15.6,58.7z M43.8,75.3l-0.9,0.2l-2.2,0.2
		L38.4,76l-2.2,0.2L33.9,76l-2-0.4l0.9-0.4l1.1-0.4l1.1-0.2l1.3-0.2h2.5l1.3,0.2h0.2l2.2,0.2l1.1,0.2l0.4,0.2L43.8,75.3z M59,63.2
		l-0.2,2l-0.9,2L56.8,69l-0.7,0.9l-0.9,0.7h-0.7l-0.7-0.2l-1.1-0.2l0.2-0.4l0.4-0.4l1.1-0.9l1.1-1.1l0.2-0.7v-0.4l-0.2-0.4l-0.2-0.2
		l-0.7-0.2h-1.1l-0.9,0.4l-2,1.1l-1.3,1.1l-2.2,0.7l-2,0.4l-2-0.2l-2.2-0.4l-0.4-0.7l-0.2-0.2l-0.4-0.2l-1.3-0.4l-1.1-0.4l-1.1-0.7
		l-1.3-0.2l-0.4-1.1l-0.4-0.2l-0.4-0.2l-1.6,0.2L31,64.3h-0.9l-0.4-0.4l-0.2-0.4L29,62.1v-2.2v-2.2l0.9-4.5l0.9-4.3l0.9-4l-1.1,0.7
		l-0.7,0.9l-0.4,1.1L29,48.9l-0.4,2.9l-0.7,3.1l-0.4,1.3l-0.7,1.1l-0.4,1.3l-0.2,1.1v0.7V61l0.2,0.7l0.2,0.4l-0.2,0.7l-0.2,0.7
		l-0.2,0.4l0.2,0.4l0.9,0.4l0.9,0.4l1.1,0.4l0.4,0.2l0.2,0.4l-1.1,1.8l-1.1,1.8l-1.3,1.3l-1.8,1.3l0.4-1.1l0.7-1.1l0.4-1.3v-0.9
		v-0.9l-0.4-1.1l-0.7-1.3l-0.9-1.3l-0.4-1.3l-0.2-1.8v-1.6l0.2-3.4V52l-0.2-1.8l-0.4-1.6h-0.4l-0.4-0.2l-0.4,0.2l-0.2,0.4v0.7
		l0.2,1.3v1.6l-0.2,1.6l-0.4,1.3l-0.4,1.3v1.1V59l0.4,1.8l0.7,1.8l0.4,1.8l-1.1-0.2l-1.1-0.4l-0.9-0.9l-0.4-0.9L18,60.5v-1.3
		l0.2-3.6l0.2-3.6l0.2-2.9v-0.4h-0.2l-0.9-0.2l0.7-0.9l0.7-0.9l0.7-0.7l0.9-0.4l2-1.1l1.8-0.9l1.3-1.1l0.7-0.4l0.7-0.4l1.6-0.4
		l1.6-0.4l1.6-0.4l0.7-0.4l0.4-0.7l0.9-0.2h0.9l1.6,0.4l1.3,0.4l1.6,0.4H40h0.9l1.6-0.4h0.9h0.9l0.7,0.4l0.7,0.4l0.9,1.6L44,45.5
		l-1.1,1.3l-1.6,1.3l-1.1,0.2l-0.9,0.4l-0.9,0.7L38,50.2l-0.9,2l-0.7,2.2l-1.1,3.1L35,59.2v1.3l0.9-0.4l0.9-0.4l1.1-0.4l1.1-0.4h1.8
		l1.8,0.4h0.9l0.9-0.2l0.7-0.2l0.7-0.4l-0.2-0.9l-0.7-0.4l-0.4-0.4l-0.7-0.7v-0.9L43.6,54v-0.9l-0.4-0.9l0.7-0.9l0.7-0.9l0.4-0.4
		l0.2-0.4v-0.7l-0.2-0.7l-1.1,0.9l-1.1,1.1l-2,2.7l-2,2.5l-2,2.5l0.7-1.8l0.9-1.6l2.2-2.9l2.5-2.7l2.5-2.7l1.6-1.8l1.6-1.8l2.7-2.7
		l2.2-2.9h0.2h0.4v0.2l-7.4,7.8l-1.1,1.3l-0.4,0.9v0.9l1.1-0.4l0.9-0.7l1.8-1.1l1.8,2.5l2,2.2l1.1,0.9l1.3,0.9l1.6,0.7l1.6,0.7
		l0.4,2.2l0.2,2.5l0.2,2.2L59,63.2z M76.2,37.5l-0.4,1.3h-0.9L74.2,39H74l-0.2-0.2l-0.4-0.4h-0.4l-0.2,0.2L72.4,39H72h-0.2l-0.2-0.4
		v-0.7l-0.2-0.7l-0.2-0.4h-0.2L70.4,37l-0.2,0.4l0.2,0.9l0.2,1.3v0.4l-0.2,0.7L70,41h-0.7v0.9l-0.2,0.7l-0.4,0.4L68,43.3l-1.3,0.2
		H65l-0.4,0.2l-0.4,0.7l-0.4,0.4h-0.2H63l-0.7-1.1l-0.7-0.9l-0.9-0.7l-1.1-0.7l-1.1-0.7l-1.1-0.2l-1.6-0.4h-1.6l1.3-0.9l0.7-0.7h1.8
		h1.1l0.9-0.2v-0.4v-0.2l-0.4-0.4L59,37l-0.2-0.2l1.1-0.4l1.1-0.2h1.1l1.1,0.4l0.4,0.7l0.4,0.2l0.4,0.2l0.2-0.7v-0.4l-0.2-0.4
		l-0.2-0.4l-0.7-0.9l-0.2-0.2v-0.4l-0.7-0.2h-1.1l-1.8,0.7l0.2-0.4l0.2-0.2l0.9-0.2l0.9-0.2l0.4-0.2l0.2-0.4l-0.2-0.4l-0.4-0.2h-0.4
		l0.4-0.2l0.7-0.2h0.7l0.4,0.2l0.2-0.2h0.2V31l-0.4-0.2L63,30.3l0.4-0.4h0.4l1.3-0.2h1.3l0.4-0.2l0.4-0.2h1.6l1.1-0.4L70,28.3
		l-0.4-0.2l-0.4-0.2l-0.2-0.2l1.3-0.2l1.3-0.2l0.2-0.7h-1.3l-1.1,0.2l2.5-1.6l0.2-0.4h0.2l0.4,0.2l0.2,0.2l0.9,0.2h0.4l0.2-0.2
		l0.4,0.4V26v0.9v0.4l0.4,0.2l0.2,0.2l0.2,0.2h-0.2v0.4h-0.4l-0.4-0.2l-0.2,0.2h0.2l0.7,2.2l0.9,2.7l0.2,1.3v1.3L76.2,37.5z"/>
	<path fill="#341939" d="M183.7,79.4h-1.8V73c0,0,2.5,0,2.6,0c2.6,0,3.8,1,3.8,3.2c0,1.3-0.5,2.1-1.4,2.6
		C186.3,79.2,185.2,79.4,183.7,79.4 M194,89c-1.1-0.2-2.4-1.4-4-3.8c-0.9-1.5-1.9-3.1-2.8-4.6c2.9-0.5,4.3-2.2,4.3-4.7
		c0-1.6-0.7-2.8-2.1-3.5c-1.1-0.6-2.5-0.9-4.1-0.9c-0.7,0-1.7,0-2.9,0.1c-2.9,0.1-5.3,0-6.2-0.1l-0.2,0v0.6c0,0,3,0.5,3,1.5
		c0,0.2,0.1,1.1,0.1,2.3V86c0,1-0.1,1.6-0.2,1.9c-0.2,0.7-2.4,1.2-2.4,1.2l-0.1,0.7l0.2,0c1.5-0.1,2.9-0.2,4.3-0.2
		c1.4,0,2.7,0.1,4.1,0.2l0.2,0v-0.6c0,0-2.1-0.7-2.7-1.1c-0.3-0.2-0.4-0.7-0.4-1.5c0-0.1,0-0.6,0-1.2c0-0.6,0-1.1,0-1.5V81h1.9
		c2.2,2.9,3.9,5.7,5.6,8.6l0.1,0.1c0,0,1.6-0.1,2.3-0.1c0.7,0,1.5,0,2.2,0.1l0.2,0l0-0.7L194,89z"/>
	<path fill="#341939" d="M74.4,88C74.4,88,74.3,88,74.4,88C74.3,88,74.3,88,74.4,88C74.3,88,74.3,88,74.4,88L74.4,88
		c-0.1,0-0.7,0-1.9-0.1c0-0.6,0-1,0-1.6v-5.2h1.7c3.6,0,5.2,1.2,5.2,3.7C79.4,87.2,77.8,88,74.4,88 M74.5,88.1L74.5,88.1
		C74.5,88.1,74.5,88.2,74.5,88.1C74.5,88.2,74.5,88.1,74.5,88.1 M72.4,75.8c0-0.9,0-1.7,0.1-2.9c0.6,0,1.3,0,2.2,0
		c2.7,0,3.9,0.9,4,3.2c0,2.2-1.3,3.1-4.3,3.1h-1.9L72.4,75.8z M80.5,81.2c-0.8-0.5-1.6-0.8-2.7-1c0.8-0.2,1.4-0.5,2.1-0.9
		c1.2-0.8,1.8-2.1,1.8-3.1c0-1.6-0.7-2.9-2-3.7c-1.1-0.7-2.5-1-4.2-1c0,0-1.5,0-4.4,0.1c-0.5,0-1,0-1.4,0c-1.8,0-3.2-0.1-3.2-0.1V72
		c0,0,2.7,0.4,3,1.7c0,0.2,0.1,13.4-0.1,13.9c-0.5,1.1-2.9,1.5-2.9,1.5v0.7c0,0,1.7-0.2,3.6-0.1c0.4,0,0.9,0,1.4,0
		c3.2,0.1,4.8,0.1,4.8,0.1c1.7,0,3.1-0.4,4.2-1.2c1.3-0.9,2-2.2,2-3.8C82.6,83.2,81.9,82,80.5,81.2"/>
	<path fill="#341939" d="M101.8,81.2c0,2-0.4,3.6-1.2,4.9c-0.9,1.5-2.3,2.3-4.1,2.3c-2.1,0-3.6-1-4.5-3.1c-0.7-1.5-1.1-3.5-1.1-5.9
		c0-1.9,0.5-3.4,1.3-4.6c1-1.4,2.4-2.1,4.2-2.1C100,72.7,101.8,75.4,101.8,81.2L101.8,81.2z M96.7,71c-2.8,0-5.1,0.9-6.7,2.7
		c-1.7,1.8-2.5,4.1-2.5,6.9c0,2.6,0.8,4.8,2.4,6.6c1.6,1.8,3.8,2.7,6.4,2.7h0c2.8,0,5-1,6.7-3c1.5-1.9,2.3-4.2,2.3-7.1h0
		c0-2.6-0.8-4.7-2.3-6.3C101.4,71.9,99.3,71,96.7,71"/>
	<path fill="#341939" d="M120.1,87.7h-5.2V76.1c0-1.4,0-2.1,0.1-2.5c0.1-1.2,3.2-1.7,3.2-1.7v-0.6c0,0-3.2,0.2-4.6,0.2
		c-1.5,0-4.5-0.2-4.5-0.2v0.6c0,0,3,0.5,3,1.6c0,0.2,0.1,1,0.1,2.3v9.8c0,1,0,1.4-0.2,1.9c-0.6,1.1-2.8,1.4-2.8,1.4v0.7l0.2,0
		c1.9-0.1,4-0.2,6.4-0.2c2.3,0,4.9,0.1,7.6,0.2l0.2,0l0.2-4.9h-0.8C122.8,84.8,122.4,87.8,120.1,87.7"/>
	<path fill="#341939" d="M135.8,66.5L135.8,66.5c0-0.8-0.7-1.4-1.4-1.4c-0.5,0-0.9,0.3-1.3,0.7l-3.8,4.4h1.4l4.3-2.5
		C135.5,67.4,135.7,67,135.8,66.5L135.8,66.5z"/>
	<path fill="#341939" d="M159.8,58.6c-2-0.2-4.1-0.2-6.1,0v-0.4c1.3-0.3,1.8-0.5,1.8-1.1c-0.1-3.9-0.7-8.5-1-10.2h0
		c-2,4.3-3.6,8-5,11.7l-0.5,0c-0.8-2.2-2.2-5.6-4.9-11.5h0c-0.5,4.8-0.6,7.6-0.7,9.9c0,0.8,1,1.1,1.7,1.3l0,0.3
		c-1.9-0.2-3.7-0.2-5.4,0l0-0.3c0,0,1.6-0.3,1.8-1.4c0.7-4.1,1.2-7.7,1.1-10.8c0-0.7-0.7-1-1.4-1.2l0-0.4c1.5,0.1,3.2,0.2,4.5,0.2
		c1.1,2.7,2.2,5.6,4.1,9.8c1.4-2.6,2.5-5.6,4.3-9.8c1.2,0,3-0.1,4.6-0.2v0.3c-0.8,0.3-1.2,0.5-1.2,0.5c-0.5,0.2-0.6,0.5-0.6,0.8
		c0,4.4,0.4,8.1,1.2,11c0.2,0.8,1.1,1,1.9,1.2V58.6z"/>
	<path fill="#341939" d="M137.4,58.6c-1.3-0.1-2.4-0.2-3.2-0.2c-0.9,0-2,0.1-3.3,0.2l0-0.4l1.2-0.5c0.6-0.2,0.8-1.3,0.8-3.7
		c0-0.3,0-2,0-2.1v-3.8c-0.1-1.8-0.1-2.6-0.7-3l-1.4-0.5l0-0.4c1.4,0.1,2.5,0.2,3.3,0.2c0.7,0,1.8-0.1,3.2-0.2l0,0.4l-1.5,0.5
		c-0.4,0.1-0.5,1.1-0.6,2.9v3.8c0,0.1,0,1.7,0,2.1c0,2.4,0.2,3.5,0.6,3.6l1.4,0.6L137.4,58.6z"/>
	<path fill="#341939" d="M126.2,52.2c-0.9-0.9-3.1-1.9-4.1-2.4c-1.1-0.6-1.6-1.3-1.6-2.2c0-0.6,0.4-1.8,1.6-2.1
		c0.3-0.1,1.9-0.5,2.7,0.2c0.7,0.5,0.7,2.2,0.7,2.2l0.4,0l0.1-3.2c0,0-1.4-0.7-3.3-0.7c-1.3,0-2.4,0.3-3.3,1c-1,0.7-2,1.9-1.4,4
		c0.5,1.6,3.4,3.1,4.3,3.5c2.4,1.2,1.8,3,1.8,3c-0.2,0.8-1,1.3-1.8,1.5c-0.6,0.2-2.8,0.1-3.2-0.4c-0.3-0.4-0.5-2.6-0.5-2.6l-0.6,0.1
		l-0.4,3.7c0,0,1.2,0.6,3.3,0.6c1.5,0,2.8-0.3,3.8-0.9c1.3-0.7,2-1.8,1.9-3.2C126.9,52.9,126.2,52.2,126.2,52.2"/>
	<path fill="#341939" d="M168.4,43.9c-2.2,0-3.9,0.7-5.2,2.1c-1.3,1.4-1.9,3.2-1.9,5.3c0,2,0.6,3.7,1.9,5.1c1.3,1.4,2.9,2.1,4.9,2.1
		h0c2.1,0,3.9-0.8,5.1-2.3c1.2-1.5,1.8-3.3,1.8-5.5c0-2-0.6-3.6-1.8-4.9C172,44.6,170.4,43.9,168.4,43.9 M172.3,51.8
		c0,1.5-0.3,2.8-0.9,3.8c-0.7,1.2-1.8,1.8-3.2,1.8c-1.6,0-2.7-0.8-3.5-2.4c-0.6-1.2-0.8-2.7-0.8-4.6c0-1.5,0.3-2.6,1-3.6
		c0.8-1.1,1.8-1.6,3.2-1.6C170.9,45.2,172.3,47.3,172.3,51.8L172.3,51.8z"/>
	<path fill-rule="evenodd" clip-rule="evenodd" fill="#341939" d="M193.2,44.8c-0.4,0.1-0.7,0.3-1.2,0.4c-0.6,0.2-0.6,1-0.6,1.3
		c-0.1,1.8-0.1,3.7-0.1,6.2c0,0.5,0,2.3,0.1,5.8h-1.3c-1.3-1.7-2.3-3-4-5.3c-1.5-2-2.3-3.3-3.8-5.4l-0.2-0.3c0,0,0.1,3.2,0.1,4.6
		c0,1.2,0,3.8,0.2,4.9c0.2,0.9,1.3,0.8,1.8,0.9l0,0.4c-1.9-0.2-3.7-0.2-5.6,0V58l1-0.3c1-0.2,0.9-3.6,0.9-7.2l-0.1-4.1
		c0-1.3-1.2-1.5-1.9-1.7l0-0.4c1.4,0.2,3,0.2,4.3,0c0.8,1.5,2.1,3.5,3.6,5.6c1.3,1.7,2.1,2.7,3.3,4.4v-0.9c0,0-0.1-4.9-0.1-5.3
		c0-0.8,0-1.9-0.2-2.3c-0.3-0.6-0.8-0.6-1.8-1l0-0.3c1.7,0.2,3.6,0.2,5.5,0L193.2,44.8z"/>
	<path fill="#341939" d="M172.8,40.3L172.8,40.3c0-0.6-0.5-1-1-0.9c-0.3,0-0.6,0.2-0.9,0.5l-2.6,3.1h1l3-1.7
		C172.7,40.9,172.8,40.6,172.8,40.3L172.8,40.3z"/>
	<path fill="#341939" d="M131.3,71.6c-1,0-2.5-0.1-4.2-0.2l-0.2,0V72c0,0,2.5,0.6,2.8,1.8c0.2,0.6,0.1,1.7,0.1,2.8
		c0,0,0.1,4.2,0.1,6.5c0,3.1-0.1,4.4-0.9,5.1c-0.7,0.6-2,0.7-2,0.7v0.7l0.2,0c1.7-0.1,3.1-0.2,4.2-0.2c1,0,2.4,0.1,4.1,0.2l0.2,0
		v-0.7c0,0-1.4-0.2-2.1-0.8c-0.5-0.4-0.9-2-0.9-5c0-0.4,0-6.3,0.1-6.5c0-1.2,0-2.2,0.1-2.9c0.2-1.5,2.8-1.8,2.8-1.8v-0.6l-0.2,0
		C133.6,71.5,132.3,71.6,131.3,71.6"/>
	<path fill="#341939" d="M156.3,72l0.1,0v-0.6l-0.2,0c-0.8,0.1-1.7,0.2-2.6,0.2s-1.9-0.1-3-0.2l-0.2,0v0.6l0.1,0
		c0.7,0.2,1.8,0.6,1.7,0.9c-0.3,1.7-3.3,9.3-4.1,11.1c-0.6-1.4-4.4-10.8-4.4-11c0,0-0.2-0.5,2.1-1l0.1,0v-0.6c0,0-2.6,0.2-3.8,0.2
		c-3,0-3.9-0.2-3.9-0.2v0.6c0,0,1.8,0.5,2.3,1.6c1.9,4.3,4.1,9.8,6.4,16.3l0,0.1h0.9l0-0.1c1.7-4.7,5.4-14.1,6.4-16.4
		C154.8,72.8,155.4,72.2,156.3,72"/>
	<path fill="#341939" d="M161.3,82.4l2.8-7l2.6,6.9L161.3,82.4z M165.5,70.9l0-0.1h-1.3l0,0.1c-2.8,6.8-3.8,8.8-6.2,14.4
		c-0.4,0.8-0.5,1.5-0.9,2.2c-0.5,0.9-2.2,1.5-2.2,1.5v0.7l0.2,0c1-0.1,2.1-0.2,3.1-0.2c1.1,0,2.1,0.1,3.2,0.2l0.2,0V89l-2.3-0.9
		c0.8-2,1.3-3.3,1.7-4.4l3.1,0l3.4,0.1c0.5,1.1,0.9,2.6,1.5,4.4c-0.8,0.3-1.6,0.6-2.5,0.8l-0.1,0v0.7l0.2,0c1.2-0.1,2.5-0.2,3.9-0.2
		c1.4,0,2.8,0.1,4.2,0.2l0.2,0V89c0,0-1.6-0.4-2.1-1c-0.4-0.4-1-2.1-1-2.1C167.8,76.8,166.4,73.3,165.5,70.9"/>
	<path fill="#341939" d="M191.7,19.1c-0.1,0.3-0.2,0.5-0.3,0.8c-0.1,0.2-0.4,0.3-0.7,0.3h-1.8v-4.1c0-0.5,0-0.7,0-0.8
		c0-0.1,0.1-0.2,0.2-0.3c0.3-0.1,0.5-0.2,0.8-0.2v-0.1c-1.1,0.1-2,0.1-2.9,0v0.1c0.2,0.1,0.5,0.2,0.7,0.2c0.1,0.1,0.2,0.1,0.3,0.3
		c0,0.1,0,0.3,0,0.8v3.4c0,0.3,0,0.5-0.1,0.6c0,0.1-0.1,0.2-0.3,0.2c-0.2,0.1-0.4,0.1-0.7,0.2v0.1c1.3-0.1,2.8-0.1,4.6,0l0.1-1.5
		H191.7z M181.1,18.3l1.1-2.5l1,2.5H181.1z M185.7,20.5l-0.8-0.3c-1.3-3.1-2.1-5-2.4-5.8h-0.2c-1.1,2.6-1.9,4.5-2.5,5.8
		c-0.2,0.1-0.4,0.2-0.7,0.3v0.1c0.7-0.1,1.4-0.1,2.1,0v-0.1l-0.8-0.3c0.2-0.7,0.3-1.2,0.5-1.6h1.2h1.2c0.2,0.4,0.4,0.9,0.5,1.6
		c-0.3,0.1-0.6,0.2-0.9,0.3v0.1c0.8-0.1,1.7-0.1,2.7,0V20.5z M178,14.6c-0.9,0.1-1.7,0.1-2.4,0v0.1c0.4,0.2,0.7,0.3,0.8,0.5
		c0.1,0.1,0.2,0.3,0.2,0.6v0.4v0.5V19l0,0c-0.6-0.7-1.1-1.5-1.7-2.2c-0.7-0.9-1.2-1.6-1.5-2.3c-0.6,0.1-1.1,0.1-1.7,0v0.1
		c0.3,0.1,0.6,0.2,0.9,0.3l0.1,0.2v1.9c0,1,0,1.5,0,1.7c0,0.9-0.1,1.4-0.3,1.5l-0.7,0.3v0.1c0.8-0.1,1.6-0.1,2.4,0v-0.1
		c-0.2-0.1-0.4-0.1-0.6-0.2c-0.2-0.1-0.4-0.2-0.4-0.4c-0.1-0.3-0.1-0.7-0.1-1.2c0-0.2,0-0.6,0-1c0-0.4,0-0.8,0-0.9v-1.2
		c0.6,0.9,1.3,1.7,1.9,2.6c0.7,1,1.4,1.9,1.9,2.6h0.2c0-1.6,0-2.5,0-2.7c0-1.1,0-2,0.1-2.8c0-0.1,0.1-0.3,0.4-0.4
		c0.2-0.1,0.4-0.1,0.6-0.2V14.6z M168.5,19.6c-0.3,0.6-0.8,0.8-1.5,0.8c-0.8,0-1.3-0.4-1.6-1.1c-0.3-0.5-0.4-1.2-0.4-2.1
		c0-0.7,0.2-1.2,0.5-1.7c0.4-0.5,0.9-0.8,1.5-0.8c1.3,0,2,1,2,3C169,18.5,168.8,19.1,168.5,19.6 M169.1,15.3
		c-0.5-0.5-1.2-0.8-2.1-0.8c-0.9,0-1.7,0.3-2.2,0.9c-0.5,0.6-0.8,1.3-0.8,2.3c0,0.9,0.3,1.6,0.8,2.2c0.5,0.6,1.2,0.9,2.1,0.9
		c0.9,0,1.6-0.3,2.2-1c0.5-0.6,0.8-1.4,0.8-2.3C169.9,16.5,169.6,15.8,169.1,15.3 M162,20.5l-0.7-0.2c-0.2-0.1-0.3-0.6-0.3-1.7
		c0-0.1,0-0.3,0-0.5v-0.4c0-0.9,0-1.4,0-1.5c0-0.8,0.1-1.2,0.2-1.2l0.8-0.3v-0.1c-0.6,0.1-1.1,0.1-1.4,0.1c-0.4,0-0.8,0-1.4-0.1v0.1
		L160,15c0.1,0,0.2,0.5,0.2,1.2c0,0.1,0,0.6,0,1.5V18c0,0.2,0,0.4,0,0.5c0,1-0.1,1.6-0.3,1.7l-0.7,0.2v0.1c0.6,0,1-0.1,1.4-0.1
		c0.3,0,0.8,0,1.4,0.1V20.5z M156.6,19h-0.1l-0.4,1.1c-0.4,0.2-0.7,0.2-1.1,0.2c-0.7,0-1.3-0.3-1.7-0.9c-0.3-0.5-0.5-1.1-0.5-1.9
		c0-0.8,0.2-1.4,0.5-1.9c0.4-0.6,1-0.8,1.7-0.8c0.4,0,0.7,0.1,1.1,0.3l0.4,1.1h0.1v-1.5c-0.4-0.1-0.9-0.1-1.4-0.1
		c-0.9,0-1.7,0.3-2.3,1c-0.6,0.6-1,1.4-1,2.3c0,0.9,0.3,1.6,1,2.1c0.6,0.5,1.4,0.8,2.3,0.8c0.4,0,0.9-0.1,1.5-0.2V19z M145.7,18.3
		l1.1-2.5l1,2.5H145.7z M150.2,20.5l-0.8-0.3c-1.3-3.1-2.1-5-2.4-5.8h-0.2c-1.1,2.6-1.9,4.5-2.5,5.8c-0.2,0.1-0.4,0.2-0.7,0.3v0.1
		c0.7-0.1,1.4-0.1,2.1,0v-0.1l-0.8-0.3c0.2-0.7,0.3-1.2,0.5-1.6h1.2h1.2c0.2,0.4,0.4,0.9,0.5,1.6c-0.3,0.1-0.6,0.2-0.9,0.3v0.1
		c0.8-0.1,1.7-0.1,2.7,0V20.5z M142.9,11.6c-1.3,0.1-2.5,0.1-3.6,0v0.2c0.6,0.3,1.1,0.5,1.2,0.7c0.2,0.2,0.3,0.5,0.3,0.9V14v0.8v3.5
		l0,0c-0.8-1.1-1.7-2.2-2.5-3.3c-1-1.3-1.8-2.5-2.3-3.4c-0.8,0.1-1.7,0.1-2.6,0v0.2c0.5,0.2,0.9,0.3,1.3,0.5l0.2,0.3v2.8
		c0,1.5,0,2.3,0,2.5c-0.1,1.4-0.2,2.1-0.5,2.2l-1.1,0.4v0.2c1.2-0.1,2.4-0.1,3.6,0v-0.2c-0.3-0.1-0.6-0.2-0.8-0.2
		c-0.4-0.1-0.6-0.3-0.6-0.5c-0.1-0.5-0.2-1.1-0.2-1.8c0-0.3,0-0.8,0.1-1.5c0-0.7,0.1-1.1,0.1-1.4v-1.8c0.9,1.3,1.9,2.6,2.9,3.8
		c1.1,1.5,2,2.8,2.8,3.9h0.3c0-2.4-0.1-3.7-0.1-4c0-1.6,0.1-3,0.2-4.2c0-0.2,0.2-0.4,0.6-0.6c0.3-0.1,0.6-0.2,0.8-0.3V11.6z
		 M125.8,19.6c-0.3,0.6-0.8,0.8-1.5,0.8c-0.8,0-1.3-0.4-1.6-1.1c-0.3-0.5-0.4-1.2-0.4-2.1c0-0.7,0.2-1.2,0.5-1.7
		c0.4-0.5,0.9-0.8,1.5-0.8c1.3,0,2,1,2,3C126.2,18.5,126,19.1,125.8,19.6 M126.4,15.3c-0.5-0.5-1.2-0.8-2.1-0.8
		c-0.9,0-1.7,0.3-2.2,0.9c-0.5,0.6-0.8,1.3-0.8,2.3c0,0.9,0.3,1.6,0.8,2.2c0.5,0.6,1.2,0.9,2.1,0.9c0.9,0,1.6-0.3,2.2-1
		c0.5-0.6,0.8-1.4,0.8-2.3C127.1,16.5,126.9,15.8,126.4,15.3 M119.2,20.5l-0.7-0.2c-0.2-0.1-0.3-0.6-0.3-1.7c0-0.1,0-0.3,0-0.5v-0.4
		c0-0.9,0-1.4,0-1.5c0-0.8,0.1-1.2,0.2-1.2l0.8-0.3v-0.1c-0.6,0.1-1.1,0.1-1.4,0.1c-0.4,0-0.8,0-1.4-0.1v0.1l0.8,0.3
		c0.1,0,0.2,0.5,0.2,1.2c0,0.1,0,0.6,0,1.5V18c0,0.2,0,0.4,0,0.5c0,1-0.1,1.6-0.3,1.7l-0.7,0.2v0.1c0.6,0,1-0.1,1.4-0.1
		c0.3,0,0.8,0,1.4,0.1V20.5z M114.7,20.5c-0.3-0.1-0.5-0.1-0.5-0.1c-0.2-0.1-0.3-0.2-0.3-0.4c-0.3-1.2-0.5-2.8-0.5-4.7
		c0-0.1,0.1-0.2,0.3-0.3l0.5-0.2v-0.1c-0.7,0-1.3,0.1-1.8,0.1c-0.8,1.8-1.4,3.3-2,4.4c-0.8-1.8-1.4-3.2-1.9-4.4
		c-0.5,0-1.1,0-1.8-0.1v0.1c0.3,0.1,0.5,0.2,0.5,0.2c0.2,0.1,0.3,0.2,0.3,0.4c0,1.3-0.2,2.8-0.5,4.6c0,0.2-0.1,0.3-0.1,0.3
		c0,0.1-0.1,0.1-0.3,0.2l-0.5,0.2v0.1c0.7-0.1,1.5-0.1,2.3,0v-0.1c-0.3-0.1-0.5-0.2-0.5-0.2c-0.2-0.1-0.3-0.2-0.3-0.4
		c0-1,0.1-2.5,0.3-4.5c1.1,2.5,1.9,4.3,2.2,5.2h0.1c0.6-1.6,1.4-3.3,2.2-5.1h0c0.1,0.7,0.2,1.5,0.3,2.2c0.1,0.9,0.2,1.6,0.2,2.2
		c0,0.2-0.3,0.3-0.9,0.5v0.1c0.9-0.1,1.7-0.1,2.6,0V20.5z M104.3,19.1c-0.1,0.5-0.2,0.8-0.3,0.8c-0.1,0.1-0.2,0.2-0.4,0.3
		c-0.1,0-0.4,0-0.9,0c-0.2,0-0.4,0-0.7,0c-0.3,0-0.5,0-0.6,0c0-0.7,0-1.1,0-1.3v-1.3h1h0.5h0.3c0.2,0,0.4,0.1,0.4,0.2
		c0.1,0.1,0.2,0.3,0.3,0.8h0.1c0-0.8,0-1.5,0-2.2h-0.1c-0.1,0.4-0.3,0.7-0.3,0.7c-0.1,0.1-0.2,0.2-0.4,0.2h-0.3h-0.5h-1v-1.2
		c0-0.2,0-0.5,0.1-1.1l1.3,0c0.1,0,0.2,0,0.4,0c0.1,0,0.2,0,0.3,0c0.2,0,0.4,0.1,0.5,0.2c0,0.1,0.2,0.3,0.3,0.8h0.1
		c0-0.4,0-0.9,0-1.4c-1.6,0.1-3.2,0.1-4.8,0v0.1c0.2,0.1,0.5,0.2,0.7,0.2c0.1,0.1,0.2,0.1,0.3,0.3c0,0.1,0,0.3,0,0.8v3.4
		c0,0.3,0,0.5-0.1,0.6c0,0.1-0.1,0.2-0.3,0.2c-0.2,0.1-0.4,0.1-0.7,0.2v0.1c0.9-0.1,1.8-0.1,2.6-0.1c0.8,0,1.5,0,2.2,0.1
		c0-0.5,0-1,0.1-1.5H104.3z M95.8,17.1c-0.3,0.1-0.6,0.2-1.1,0.2H94V15h0.9c1,0,1.4,0.4,1.4,1.2C96.3,16.6,96.1,16.9,95.8,17.1
		 M98,20.5c-0.4-0.1-0.9-0.5-1.4-1.3c-0.3-0.5-0.7-1.1-1-1.6c1-0.2,1.5-0.7,1.5-1.5c0-0.5-0.2-0.9-0.7-1.1c-0.4-0.2-0.8-0.3-1.4-0.3
		c-0.2,0-0.6,0-1,0c-0.4,0-0.8,0-1,0c-0.4,0-0.7,0-1-0.1v0.1c0.2,0.1,0.5,0.2,0.7,0.2c0.1,0.1,0.2,0.2,0.3,0.3c0,0.1,0,0.3,0,0.8
		v3.4c0,0.3,0,0.5-0.1,0.6c0,0.1-0.1,0.2-0.3,0.2c-0.2,0.1-0.4,0.1-0.7,0.2v0.1c1-0.1,1.9-0.1,2.8,0v-0.1c-0.5-0.2-0.7-0.3-0.8-0.4
		C94,20,94,19.8,94,19.6v-0.4v-0.5v-1.1h0.7c0.7,1,1.4,2,2,3c0.5,0,0.9,0,1.3,0V20.5z M88.4,15.5C88,15.8,87.5,16,86.9,16
		c-0.4,0-0.7,0-0.9,0v-3.8c0.5,0,0.8,0,1.1,0c0.6,0,1.1,0.2,1.5,0.5c0.4,0.3,0.5,0.8,0.5,1.5C89,14.7,88.8,15.2,88.4,15.5
		 M89.5,12.2c-0.5-0.4-1.2-0.6-2-0.6c0,0-0.7,0-2.1,0.1c-0.8,0-1.5,0-2.1-0.1v0.2c0.4,0.1,0.7,0.2,1.1,0.4c0.2,0.1,0.3,0.2,0.4,0.4
		c0,0.1,0,0.5,0,1.1v5.1c0,0.5,0,0.8-0.1,1c-0.1,0.2-0.2,0.3-0.4,0.4c-0.3,0.1-0.7,0.2-1,0.3v0.2c1.5-0.1,2.9-0.1,4.2,0v-0.2
		c-0.8-0.3-1.2-0.4-1.3-0.5c-0.2-0.1-0.3-0.3-0.3-0.7c0-0.1,0-0.3,0-0.5c0-0.3,0-0.6,0-0.8v-1.5h0.8c2.4,0,3.7-0.8,3.7-2.4
		C90.4,13.2,90.1,12.6,89.5,12.2"/>
	<path fill="#341939" d="M191.8,33.5c-0.3,0.5-0.8,0.8-1.5,0.8c-0.8,0-1.3-0.4-1.6-1.1c-0.3-0.5-0.4-1.2-0.4-2.1
		c0-0.7,0.2-1.2,0.5-1.7c0.4-0.5,0.9-0.7,1.5-0.7c1.3,0,2,1,2,3C192.2,32.5,192.1,33,191.8,33.5 M192.4,29.2
		c-0.5-0.5-1.2-0.8-2.1-0.8c-0.9,0-1.7,0.3-2.2,0.9c-0.5,0.6-0.8,1.3-0.8,2.3c0,0.9,0.3,1.6,0.8,2.2c0.5,0.6,1.2,0.9,2.1,0.9
		c0.9,0,1.6-0.3,2.2-1c0.5-0.6,0.8-1.4,0.8-2.3C193.2,30.5,192.9,29.8,192.4,29.2 M186,34.4c-0.3-0.1-0.5-0.1-0.5-0.1
		c-0.2-0.1-0.3-0.2-0.3-0.4c-0.3-1.2-0.5-2.8-0.5-4.7c0-0.1,0.1-0.2,0.3-0.3l0.5-0.2v-0.1c-0.7,0-1.3,0.1-1.8,0.1
		c-0.8,1.8-1.4,3.3-2,4.4c-0.8-1.8-1.4-3.2-1.9-4.4c-0.5,0-1.1,0-1.8-0.1v0.1c0.3,0.1,0.5,0.2,0.5,0.2c0.2,0.1,0.3,0.2,0.3,0.4
		c0,1.3-0.2,2.8-0.5,4.6c0,0.2-0.1,0.3-0.1,0.3c0,0.1-0.1,0.1-0.3,0.2l-0.5,0.2v0.1c0.7-0.1,1.5-0.1,2.3,0v-0.1
		c-0.3-0.1-0.5-0.2-0.5-0.2c-0.2-0.1-0.3-0.2-0.3-0.4c0-1,0.1-2.5,0.3-4.5c1.1,2.5,1.9,4.3,2.2,5.2h0.1c0.6-1.6,1.4-3.3,2.2-5.1h0
		c0.1,0.7,0.2,1.5,0.3,2.2c0.1,0.9,0.2,1.6,0.2,2.2c0,0.2-0.3,0.3-0.9,0.5v0.1c0.9-0.1,1.7-0.1,2.6,0V34.4z M175.1,31.6
		c-0.5-0.2-0.9-0.5-1.4-0.7c-0.5-0.3-0.8-0.6-0.8-1c0-0.3,0.1-0.6,0.3-0.8c0.2-0.2,0.5-0.3,0.8-0.3c0.3,0,0.6,0.1,0.9,0.2l0.4,1h0.1
		l0.1-1.3c-0.4-0.2-0.9-0.3-1.4-0.3c-0.5,0-1,0.1-1.4,0.4c-0.4,0.3-0.6,0.7-0.6,1.3c0,0.5,0.2,0.9,0.8,1.3c0.5,0.2,0.9,0.5,1.4,0.7
		c0.5,0.3,0.8,0.6,0.8,1c0,0.4-0.1,0.7-0.4,0.9c-0.2,0.2-0.6,0.3-1,0.3c-0.4,0-0.7-0.1-0.9-0.2l-0.3-1.2h-0.1l-0.2,1.5
		c0.4,0.2,0.9,0.3,1.4,0.3c0.7,0,1.2-0.1,1.6-0.4c0.5-0.3,0.8-0.8,0.8-1.4C175.8,32.3,175.6,31.9,175.1,31.6 M169.9,34.4l-0.7-0.2
		c-0.2-0.1-0.3-0.6-0.3-1.7c0-0.1,0-0.3,0-0.5v-0.4c0-0.9,0-1.4,0-1.5c0-0.8,0.1-1.2,0.2-1.2l0.8-0.3v-0.1c-0.6,0.1-1.1,0.1-1.4,0.1
		c-0.4,0-0.8,0-1.4-0.1v0.1l0.8,0.3c0.1,0,0.2,0.5,0.2,1.2c0,0.1,0,0.6,0,1.5V32c0,0.2,0,0.4,0,0.5c0,1-0.1,1.6-0.3,1.7l-0.7,0.2
		v0.1c0.6,0,1-0.1,1.4-0.1c0.3,0,0.8,0,1.4,0.1V34.4z M161.9,34.2c-0.1,0-0.4,0-0.7,0c0-0.4-0.1-0.7-0.1-0.9v-3.2
		c0-0.3,0-0.7,0.1-1.2c0.2,0,0.5-0.1,0.6-0.1c0.8,0,1.4,0.3,1.9,0.8c0.4,0.5,0.6,1.1,0.6,1.9C164.3,33.3,163.5,34.2,161.9,34.2
		 M164.3,29.4c-0.6-0.6-1.3-0.9-2.2-0.9c0,0-0.5,0-1.4,0c-0.6,0-1,0-1.4,0v0.1c0.2,0.1,0.5,0.2,0.7,0.2c0.1,0.1,0.2,0.1,0.3,0.3
		c0,0.1,0,0.3,0,0.8v3.4c0,0.3,0,0.5-0.1,0.6c0,0.1-0.1,0.2-0.3,0.2c-0.2,0.1-0.4,0.1-0.7,0.2v0.1c0.3,0,0.6,0,1,0c0.2,0,0.6,0,1,0
		c0.4,0,0.8,0,1,0c0.8,0,1.5-0.3,2.1-0.9c0.5-0.6,0.8-1.3,0.8-2.1C165.2,30.7,164.9,29.9,164.3,29.4 M156.1,33.5
		c-0.3,0.5-0.8,0.8-1.5,0.8c-0.7,0-1.3-0.4-1.6-1.1c-0.3-0.5-0.4-1.2-0.4-2.1c0-0.7,0.2-1.2,0.5-1.7c0.4-0.5,0.9-0.7,1.5-0.7
		c1.3,0,2,1,2,3C156.5,32.5,156.3,33,156.1,33.5 M156.7,29.2c-0.5-0.5-1.2-0.8-2-0.8c-0.9,0-1.7,0.3-2.2,0.9
		c-0.5,0.6-0.8,1.3-0.8,2.3c0,0.9,0.3,1.6,0.8,2.2c0.5,0.6,1.2,0.9,2.1,0.9c0.9,0,1.6-0.3,2.2-1c0.5-0.6,0.8-1.4,0.8-2.3
		C157.4,30.5,157.2,29.8,156.7,29.2 M149.7,34.4l-0.7-0.2c-0.2-0.1-0.3-0.6-0.3-1.7c0-0.1,0-0.3,0-0.5v-0.4c0-0.9,0-1.4,0-1.5
		c0-0.8,0.1-1.2,0.2-1.2l0.8-0.3v-0.1c-0.6,0.1-1.1,0.1-1.4,0.1c-0.4,0-0.8,0-1.4-0.1v0.1l0.8,0.3c0.1,0,0.2,0.5,0.2,1.2
		c0,0.1,0,0.6,0,1.5V32c0,0.2,0,0.4,0,0.5c0,1-0.1,1.6-0.3,1.7l-0.7,0.2v0.1c0.6,0,1-0.1,1.4-0.1c0.3,0,0.8,0,1.4,0.1V34.4z M143,31
		c-0.3,0.1-0.6,0.2-1.1,0.2h-0.6v-2.4h0.9c1,0,1.4,0.4,1.4,1.2C143.6,30.5,143.4,30.8,143,31 M145.3,34.4c-0.4-0.1-0.9-0.5-1.4-1.3
		c-0.3-0.5-0.7-1.1-1-1.6c1-0.2,1.5-0.7,1.5-1.5c0-0.5-0.2-0.9-0.7-1.1c-0.4-0.2-0.8-0.3-1.4-0.3c-0.2,0-0.6,0-1,0c-0.4,0-0.8,0-1,0
		c-0.4,0-0.7,0-1-0.1v0.1c0.2,0.1,0.5,0.2,0.7,0.2c0.1,0.1,0.2,0.2,0.3,0.3c0,0.1,0,0.3,0,0.8v3.4c0,0.3,0,0.5-0.1,0.6
		c0,0.1-0.1,0.2-0.3,0.2c-0.2,0.1-0.4,0.1-0.7,0.2v0.1c1-0.1,1.9-0.1,2.8,0v-0.1c-0.5-0.2-0.7-0.3-0.9-0.4c-0.1-0.1-0.2-0.3-0.2-0.5
		v-0.4v-0.5v-1.1h0.7c0.7,1,1.4,2,2,3c0.5,0,0.9,0,1.3,0V34.4z M137.4,33c-0.1,0.5-0.2,0.8-0.3,0.8c-0.1,0.1-0.2,0.2-0.4,0.3
		c-0.1,0-0.4,0-0.9,0c-0.2,0-0.4,0-0.6,0c-0.3,0-0.5,0-0.6,0c0-0.7,0-1.1,0-1.3v-1.3h1h0.5h0.3c0.2,0,0.4,0.1,0.4,0.2
		c0.1,0.1,0.2,0.3,0.3,0.8h0.1c0-0.8,0-1.5,0-2.2H137c-0.1,0.4-0.3,0.7-0.3,0.7c-0.1,0.1-0.2,0.2-0.4,0.2h-0.3h-0.5h-1V30
		c0-0.2,0-0.5,0.1-1.1l1.3,0c0.1,0,0.2,0,0.4,0c0.1,0,0.2,0,0.3,0c0.2,0,0.4,0.1,0.5,0.2c0,0.1,0.2,0.3,0.3,0.8h0.1
		c0-0.4,0-0.9,0-1.4c-1.6,0.1-3.2,0.1-4.8,0v0.1c0.2,0.1,0.5,0.2,0.7,0.2c0.1,0.1,0.2,0.1,0.3,0.3c0,0.1,0,0.3,0,0.8v3.4
		c0,0.3,0,0.5-0.1,0.6c0,0.1-0.1,0.2-0.3,0.2c-0.2,0.1-0.4,0.1-0.7,0.2v0.1c0.9-0.1,1.8-0.1,2.6-0.1c0.8,0,1.5,0,2.2,0.1
		c0-0.5,0-1,0.1-1.5H137.4z M129.1,29.4c-0.4,0.3-0.9,0.5-1.5,0.5c-0.4,0-0.7,0-0.9,0v-3.8c0.5,0,0.8,0,1.1,0c0.6,0,1.1,0.2,1.5,0.5
		s0.5,0.8,0.5,1.5C129.8,28.6,129.5,29.1,129.1,29.4 M130.2,26.1c-0.5-0.4-1.2-0.6-2-0.6c0,0-0.7,0-2.1,0.1c-0.8,0-1.5,0-2.1-0.1
		v0.2c0.4,0.1,0.7,0.2,1.1,0.4c0.2,0.1,0.3,0.2,0.4,0.4c0,0.1,0,0.5,0,1.1v5.1c0,0.5,0,0.8-0.1,1c-0.1,0.2-0.2,0.3-0.4,0.4
		c-0.3,0.1-0.7,0.2-1,0.3v0.2c1.5-0.1,2.9-0.1,4.2,0v-0.2c-0.8-0.3-1.2-0.4-1.3-0.5c-0.2-0.1-0.3-0.3-0.3-0.7c0-0.1,0-0.3,0-0.5
		c0-0.3,0-0.6,0-0.8v-1.5h0.8c2.4,0,3.7-0.8,3.7-2.4C131.1,27.2,130.8,26.5,130.2,26.1 M116.8,33c-0.1,0.5-0.2,0.8-0.3,0.8
		c-0.1,0.1-0.2,0.2-0.4,0.3c-0.1,0-0.4,0-0.9,0c-0.2,0-0.4,0-0.6,0c-0.3,0-0.5,0-0.6,0c0-0.7,0-1.1,0-1.3v-1.3h1h0.5h0.3
		c0.2,0,0.4,0.1,0.4,0.2c0.1,0.1,0.2,0.3,0.3,0.8h0.1c0-0.8,0-1.5,0-2.2h-0.1c-0.1,0.4-0.3,0.7-0.3,0.7c-0.1,0.1-0.2,0.2-0.4,0.2
		h-0.3h-0.5h-1V30c0-0.2,0-0.5,0.1-1.1l1.3,0c0.1,0,0.2,0,0.4,0c0.1,0,0.2,0,0.3,0c0.2,0,0.4,0.1,0.5,0.2c0,0.1,0.2,0.3,0.3,0.8h0.1
		c0-0.4,0-0.9,0-1.4c-1.6,0.1-3.2,0.1-4.8,0v0.1c0.2,0.1,0.5,0.2,0.7,0.2c0.1,0.1,0.2,0.1,0.3,0.3c0,0.1,0,0.3,0,0.8v3.4
		c0,0.3,0,0.5-0.1,0.6c0,0.1-0.1,0.2-0.3,0.2c-0.2,0.1-0.4,0.1-0.7,0.2v0.1c0.9-0.1,1.8-0.1,2.6-0.1c0.8,0,1.5,0,2.2,0.1
		c0-0.5,0-1,0.1-1.5H116.8z M107,34.2c-0.1,0-0.4,0-0.7,0c0-0.4-0.1-0.7-0.1-0.9v-3.2c0-0.3,0-0.7,0.1-1.2c0.2,0,0.5-0.1,0.6-0.1
		c0.8,0,1.4,0.3,1.9,0.8c0.4,0.5,0.6,1.1,0.6,1.9C109.4,33.3,108.6,34.2,107,34.2 M109.4,29.4c-0.6-0.6-1.3-0.9-2.2-0.9
		c0,0-0.5,0-1.4,0c-0.6,0-1,0-1.4,0v0.1c0.2,0.1,0.5,0.2,0.7,0.2c0.1,0.1,0.2,0.1,0.3,0.3c0,0.1,0,0.3,0,0.8v3.4
		c0,0.3,0,0.5-0.1,0.6c0,0.1-0.1,0.2-0.3,0.2c-0.2,0.1-0.4,0.1-0.7,0.2v0.1c0.3,0,0.6,0,1,0c0.2,0,0.6,0,1,0c0.4,0,0.8,0,1,0
		c0.8,0,1.5-0.3,2.1-0.9c0.5-0.6,0.8-1.3,0.8-2.1C110.3,30.7,110,29.9,109.4,29.4"/>
</g>
</svg>
