<?xml version="1.0" encoding="utf-8"?>
<!-- Generator: Adobe Illustrator 15.0.0, SVG Export Plug-In . SVG Version: 6.00 Build 0)  -->
<!DOCTYPE svg PUBLIC "-//W3C//DTD SVG 1.1//EN" "http://www.w3.org/Graphics/SVG/1.1/DTD/svg11.dtd" [
	<!ENTITY ns_flows "http://ns.adobe.com/Flows/1.0/">
	<!ENTITY ns_extend "http://ns.adobe.com/Extensibility/1.0/">
	<!ENTITY ns_ai "http://ns.adobe.com/AdobeIllustrator/10.0/">
	<!ENTITY ns_graphs "http://ns.adobe.com/Graphs/1.0/">
]>
<svg version="1.1" id="Layer_1" xmlns:x="&ns_extend;" xmlns:i="&ns_ai;" xmlns:graph="&ns_graphs;"
	 xmlns="http://www.w3.org/2000/svg" xmlns:xlink="http://www.w3.org/1999/xlink" xmlns:a="http://ns.adobe.com/AdobeSVGViewerExtensions/3.0/"
	 x="0px" y="0px" width="375.2px" height="132px" viewBox="0 0 375.2 132" enable-background="new 0 0 375.2 132"
	 xml:space="preserve">
<g>
	<g>
		<path fill="#341939" d="M375.1,105.1c-0.8-0.1-1.8-1-2.9-2.8c-0.7-1.1-1.4-2.2-2-3.4c2.1-0.4,3.1-1.6,3.1-3.5c0-1.1-0.5-2-1.5-2.6
			c-0.8-0.5-1.8-0.7-3-0.7c-0.5,0-1.2,0-2.1,0.1c-2.1,0.1-3.9,0-4.5-0.1l-0.1,0v0.4c0,0,2.2,0.4,2.2,1.1c0,0.1,0,0.8,0,1.7v7.5
			c0,0.7-0.1,1.1-0.1,1.4c-0.2,0.5-1.7,0.9-1.7,0.9l-0.1,0.5l0.2,0c1.1-0.1,2.1-0.1,3.1-0.1c1,0,2,0,3,0.1l0.1,0v-0.5
			c0,0-1.6-0.5-2-0.8c-0.2-0.2-0.3-0.5-0.3-1.1c0-0.1,0-0.4,0-0.9c0-0.4,0-0.8,0-1.1v-2.1l1.4,0c1.6,2.1,2.8,4.1,4.1,6.3l0,0.1
			c0,0,1.1-0.1,1.7-0.1c0.5,0,1.1,0,1.6,0.1l0.1,0l0-0.5L375.1,105.1z M367.6,98.1h-1.3v-4.6c0,0,1.8,0,1.9,0c1.9,0,2.8,0.8,2.8,2.3
			c0,1-0.3,1.6-1,1.9C369.4,98,368.7,98.1,367.6,98.1"/>
		<path fill="#341939" d="M292.3,99.4c-0.6-0.4-1.2-0.6-2-0.7c0.6-0.1,1-0.4,1.5-0.7c0.9-0.6,1.3-1.5,1.3-2.3c0-1.2-0.5-2.1-1.4-2.7
			c-0.8-0.5-1.8-0.7-3-0.7c0,0-1.1,0-3.2,0.1c-0.4,0-0.7,0-1,0c-1.3,0-2.3-0.1-2.3-0.1v0.5c0,0,2,0.3,2.2,1.2
			c0,0.1,0.1,9.8-0.1,10.1c-0.4,0.8-2.1,1.1-2.1,1.1v0.5c0,0,1.3-0.1,2.7-0.1c0.3,0,0.6,0,1,0c2.3,0.1,3.5,0.1,3.5,0.1
			c1.2,0,2.2-0.3,3.1-0.9c0.9-0.6,1.4-1.6,1.4-2.8C293.7,100.9,293.2,100,292.3,99.4 M286.3,95.5c0-0.6,0-1.3,0-2.1c0.4,0,1,0,1.6,0
			c2,0,2.9,0.7,2.9,2.3c0,1.6-1,2.2-3.1,2.3h-1.4L286.3,95.5z M287.9,104.5L287.9,104.5L287.9,104.5
			C287.9,104.5,287.9,104.5,287.9,104.5 M287.8,104.4C287.7,104.4,287.7,104.4,287.8,104.4C287.7,104.4,287.7,104.4,287.8,104.4
			C287.7,104.4,287.7,104.4,287.8,104.4L287.8,104.4c-0.1,0-0.5,0-1.4-0.1c0-0.4,0-0.8,0-1.1v-3.8h1.3c2.6,0,3.8,0.9,3.8,2.7
			C291.4,103.8,290.3,104.4,287.8,104.4"/>
		<path fill="#341939" d="M304.1,92c-2,0-3.7,0.7-4.9,2c-1.2,1.3-1.8,3-1.8,5.1c0,1.9,0.6,3.5,1.8,4.8c1.2,1.3,2.8,2,4.7,2h0
			c2,0,3.7-0.7,4.9-2.2c1.1-1.4,1.7-3.1,1.7-5.2h0c0-1.9-0.6-3.4-1.7-4.6C307.5,92.7,306,92,304.1,92 M307.8,99.5
			c0,1.5-0.3,2.6-0.9,3.6c-0.7,1.1-1.7,1.7-3,1.7c-1.5,0-2.6-0.7-3.3-2.2c-0.5-1.1-0.8-2.6-0.8-4.3c0-1.4,0.3-2.5,1-3.4
			c0.7-1,1.7-1.5,3-1.5C306.5,93.2,307.8,95.2,307.8,99.5L307.8,99.5z"/>
		<path fill="#341939" d="M321.1,104.2h-3.8v-8.5c0-1,0-1.6,0-1.8c0.1-0.9,2.3-1.2,2.3-1.2v-0.4c0,0-2.3,0.1-3.4,0.1
			c-1.1,0-3.3-0.1-3.3-0.1v0.4c0,0,2.2,0.4,2.2,1.2c0,0.1,0,0.8,0,1.7v7.2c0,0.7,0,1-0.1,1.4c-0.4,0.8-2.1,1-2.1,1v0.5l0.1,0
			c1.4-0.1,2.9-0.1,4.7-0.1c1.7,0,3.6,0,5.5,0.1l0.1,0l0.2-3.5h-0.6C323.1,102.1,322.8,104.3,321.1,104.2"/>
		<path fill="#341939" d="M332.6,88.7L332.6,88.7c0-0.6-0.5-1-1-1c-0.4,0-0.7,0.2-1,0.5l-2.8,3.2h1l3.2-1.8
			C332.4,89.4,332.6,89.1,332.6,88.7L332.6,88.7z"/>
		<path fill="#341939" d="M329.4,92.4c-0.8,0-1.8-0.1-3.1-0.2l-0.1,0v0.4c0,0,1.8,0.4,2,1.3c0.1,0.5,0.1,1.2,0.1,2.1
			c0,0,0.1,3.1,0,4.7c0,2.2-0.1,3.2-0.7,3.7c-0.5,0.4-1.5,0.5-1.5,0.5v0.5l0.1,0c1.2-0.1,2.2-0.2,3.1-0.2c0.7,0,1.7,0.1,3,0.2l0.1,0
			v-0.5c0,0-1-0.2-1.5-0.6c-0.4-0.3-0.7-1.4-0.6-3.7c0-0.3,0-4.6,0-4.7c0-0.8,0-1.6,0.1-2.1c0.1-1.1,2-1.3,2-1.3v-0.4l-0.1,0
			C331,92.4,330,92.4,329.4,92.4"/>
		<path fill="#341939" d="M347.6,92.7L347.6,92.7l0.1-0.5l-0.1,0c-0.6,0.1-1.2,0.1-1.9,0.1c-0.7,0-1.4,0-2.2-0.1l-0.1,0v0.4l0.1,0
			c0.5,0.2,1.3,0.4,1.3,0.7c-0.2,1.2-2.4,6.8-3,8.1c-0.4-1-3.2-7.9-3.2-8.1c0,0-0.2-0.4,1.5-0.7l0.1,0v-0.4c0,0-1.9,0.1-2.8,0.1
			c-2.2,0-2.9-0.1-2.9-0.1v0.4c0,0,1.3,0.3,1.7,1.2c1.4,3.1,3,7.1,4.6,11.9l0,0.1h0.6l0-0.1c1.3-3.4,3.9-10.3,4.7-11.9
			C346.4,93.3,346.9,92.9,347.6,92.7"/>
		<path fill="#341939" d="M354.3,91.9L354.3,91.9l-1-0.1l0,0.1c-2.1,4.9-2.8,6.4-4.5,10.5c-0.3,0.6-0.4,1.1-0.7,1.6
			c-0.4,0.7-1.6,1.1-1.6,1.1v0.5l0.1,0c0.7-0.1,1.5-0.1,2.3-0.1c0.8,0,1.5,0,2.3,0.1l0.1,0v-0.5l-1.7-0.6c0.6-1.5,0.9-2.4,1.3-3.2
			l2.2,0l2.5,0c0.4,0.8,0.7,1.9,1.1,3.2c-0.6,0.2-1.2,0.4-1.9,0.6l-0.1,0v0.5l0.1,0c0.9-0.1,1.9-0.1,2.9-0.1s2,0,3.1,0.1l0.1,0v-0.5
			c0,0-1.2-0.3-1.5-0.7c-0.3-0.3-0.7-1.6-0.7-1.6C356,96.2,354.9,93.7,354.3,91.9 M351.2,100.3l2-5.1l1.9,5.1L351.2,100.3z"/>
		<path fill="#341939" d="M317.1,82.5c-0.5,0-1,0-1.5,0l-0.1,0v0.2c0,0,1.1,0.1,1.1,0.7v1.2l0,0.3c-0.3,0.1-0.5,0.2-0.9,0.2
			c-0.8,0-1.5-0.2-1.8-0.7c-0.5-0.6-0.6-1.3-0.7-2c0-0.8,0.2-1.4,0.6-2c0.4-0.5,1.1-0.8,2-0.8c0.6,0,0.8,0.1,1,0.2
			c0.2,0.2,0.4,1,0.4,1h0.2l0-0.1c0-0.3,0-0.6,0-0.9c0-0.3,0-0.5,0-0.8l0-0.1l-0.1,0c-0.5-0.1-0.9-0.1-1.4-0.1c-1.1,0-2.1,0.4-2.8,1
			c-0.8,0.7-1.2,1.6-1.2,2.6c0,1,0.4,1.9,1.1,2.5c0.7,0.6,1.6,0.8,2.6,0.8c0.7,0,1.4-0.1,2-0.3l0.1,0l0,0c0-0.3,0-1,0-2.1
			c0-0.6,0.8-0.7,0.8-0.7v-0.2l-0.1,0C317.9,82.4,317.6,82.5,317.1,82.5"/>
		<path fill="#341939" d="M323.8,83.9c-0.3-0.6-0.7-1.1-1-1.7c1.1-0.2,1.6-0.8,1.6-1.7c0-0.6-0.3-1-0.8-1.3
			c-0.4-0.2-0.9-0.3-1.5-0.3c-0.2,0-0.6,0-1.1,0c-0.5,0-0.9,0-1.2,0c-0.4,0-0.8,0-1.1,0l-0.1,0v0.3c0,0,1,0.1,1.1,0.5
			c0,0.1,0,0.3,0,0.8v3.7c0,0.3,0,0.6-0.1,0.7c-0.1,0.3-0.9,0.4-0.9,0.4l0,0.2l0.1,0c0.5,0,1-0.1,1.6-0.1c0.5,0,1,0,1.5,0.1l0.1,0
			v-0.2c0,0-0.7-0.2-1-0.4c-0.1-0.1-0.2-0.2-0.2-0.5c0-0.1,0-0.3,0-0.5c0-0.2,0-0.4,0-0.5v-1h0.7c0.8,1.1,1.4,2.1,2,3.1l0.1,0
			c0.2,0,0.5,0,0.8,0c0.3,0,0.6,0,0.8,0l0.1,0v-0.3C324.9,85.2,324.4,84.8,323.8,83.9 M321.5,81.8h-0.6v-2.3l0.9,0
			c1,0,1.4,0.4,1.4,1.2c0,0.5-0.2,0.8-0.5,1C322.4,81.8,322.1,81.8,321.5,81.8"/>
		<path fill="#341939" d="M330.8,79c-0.4,0-0.9,0-1.3-0.1l-0.1,0v0.2c0,0,0.8,0.1,0.9,0.5c0.1,0.4,0.1,1,0.1,1.6
			c0,0.2,0,2.6-0.4,3.1c-0.3,0.3-0.7,0.6-1.2,0.6c-0.7,0-1.1-0.2-1.4-0.5c-0.7-0.8-0.3-4.3-0.3-4.6c0-0.5,1.1-0.7,1.1-0.7v-0.2
			l-0.1,0c-0.5,0-1.1,0.1-1.6,0.1c-0.5,0-1.1,0-1.5-0.1l-0.1,0v0.2c0,0,1.1,0.2,1.1,0.8c0,0.2-0.2,2.1-0.2,2.9c0,0.9,0.2,1.5,0.5,2
			c0.4,0.6,1.4,0.9,2.4,0.9c1,0,1.8-0.4,2.2-1.1c0.3-0.5,0.4-1.3,0.4-2.3c0,0,0-0.1,0-0.1c0-0.8,0-1.4,0-1.8c0-0.4,0-0.7,0-0.7
			c0-0.5,0.9-0.6,0.9-0.6v-0.2l-0.1,0C331.7,78.9,331.3,79,330.8,79"/>
		<path fill="#341939" d="M342.3,78.9c-1,0-1.8,0.3-2.5,1c-0.6,0.7-0.9,1.5-0.9,2.5c0,1,0.3,1.8,0.9,2.4c0.6,0.7,1.4,1,2.3,1h0
			c1,0,1.8-0.4,2.4-1.1c0.6-0.7,0.8-1.5,0.8-2.6c0-0.9-0.3-1.7-0.8-2.3C344,79.2,343.2,78.9,342.3,78.9 M344.1,82.6
			c0,0.7-0.1,1.3-0.4,1.8c-0.3,0.6-0.8,0.8-1.5,0.8c-0.8,0-1.3-0.4-1.6-1.1c-0.3-0.6-0.4-1.3-0.4-2.2c0-0.7,0.2-1.2,0.5-1.7
			c0.4-0.5,0.9-0.8,1.5-0.8C343.5,79.5,344.1,80.5,344.1,82.6L344.1,82.6z"/>
		<path fill="#341939" d="M338.3,80.7c0,1.2-0.9,1.8-2.7,1.8c-0.2,0-0.4,0-0.5,0l0,1.1c0,0.4,0,1.3,0.2,1.4c0.1,0.1,0.3,0.2,0.9,0.3
			l0,0.2c-1-0.1-2.1-0.1-3.2,0v-0.2c0,0,0.8-0.1,0.9-0.4c0.1-0.2,0.1-0.4,0.1-0.7v-3.8c0-0.5,0-0.8,0-0.9c0-0.1-0.1-0.2-0.3-0.3
			l-0.7-0.2v-0.2c0.4,0,0.9,0.1,1.6,0l1.5,0c0.6,0,1.1,0.1,1.5,0.4C338.1,79.6,338.3,80.1,338.3,80.7 M337.4,80.8
			c0-0.5-0.1-0.8-0.4-1c-0.3-0.2-0.6-0.3-1.1-0.3c-0.2,0-0.4,0-0.7,0l0,2.7c0.2,0,0.3,0,0.6,0c0.5,0,0.8-0.1,1.1-0.3
			C337.2,81.5,337.4,81.2,337.4,80.8"/>
		<path fill="#341939" d="M308.6,68.9h39.9V28.7h-39.9V68.9z M347.6,68h-38V29.6h38V68z"/>
		<path fill="#341939" d="M329.1,30.1c5.5-2,9.1,0.8,9.1,0.8s-3.1-0.6-6,0.1L329.1,30.1z"/>
		<path fill="#341939" d="M331.8,32.7c5.2-0.8,6.4,1,6.4,1s-1.1-0.3-3.6,0.1L331.8,32.7z"/>
		<path fill="#341939" d="M327.7,52.7c2.7-2.3,5.7-1.7,6.8-0.4c1.5,1.9,0.5,4.1-1.2,5.6c0,0,2.2-2.4,0.5-4.6c-0.7-1-3-1.5-4.9,0.2
			c-2,1.6-3.1,5.2,0.5,6.6C325,60.3,324.3,55.6,327.7,52.7"/>
		<path fill="#341939" d="M341.4,43.8c18-7.6,19,12.2-12.5,31.9C351.7,56.6,356.8,41.5,341.4,43.8"/>
		<path fill="#341939" d="M314.8,54.7c-18.4,8.1-6.1,14.2-6.1,14.2S302.4,61.9,314.8,54.7"/>
		<path fill="#341939" d="M331.1,68.9c9.6-5.8,3.2-11.5,3.2-11.5s4.4,5.9-6.4,11.5L331.1,68.9z"/>
		<path fill="#341939" d="M314.5,56.7c0,0,2.2-3.9,2.9-8.9C317.4,47.8,319.3,53.7,314.5,56.7"/>
		<path fill="#341939" d="M311.3,57c0,0-10-9.2,5.7-16.9c4.5-2.2,10.6-2.5,13.3,1.3c0.8,1.1,1.4,7.6-7.7,14.8
			c-3.5-1.1-4.1-3.2-4.1-3.2c1.5,1.8,4,1.8,4,1.8c6-4.6,7.3-11.8,6.2-12.9c-2.5-2.4-6.7-2.1-11.1-0.2C304.4,47.7,311.3,57,311.3,57"
			/>
		<path fill="#341939" d="M317.8,68.9h-3.3c0,0,4.1-6.9,11.5-8.1C326.1,60.8,320.6,62.7,317.8,68.9"/>
		<path fill="#341939" d="M319.3,33c0,0,0.2-3.9,6.2-6.1c6.7-2.5,11.4,1.8,11.4,1.8s-10-4.3-15,3.4c-0.1,0.1,2,1.1,2,1.1
			c0,0,1.3,8.8,7,12c2.4-0.7,4.3-3.3,4.2-3.3c0,0-0.2,3.1-4.1,4.8c-7.3-3.7-9-12.5-9-12.5S319.5,33.6,319.3,33"/>
		<path fill="#341939" d="M322.1,44.2c-12.8,3.4-7.8,8.7-7.8,8.7S313.1,48.6,322.1,44.2"/>
		<path fill="#341939" d="M337.6,35.5c0,0-1.4,2.1-0.5,4.5c0.9,2.4,3.8,4,3.8,4S338,39.9,337.6,35.5"/>
	</g>
	<line fill="none" stroke="#341939" stroke-width="0.25" stroke-miterlimit="10" x1="225.2" y1="0" x2="225.2" y2="132"/>
	<g>
		<polygon fill="#341939" points="49.3,43.9 49.9,43.9 50.1,43.3 49.9,42.7 48.9,42.7 48.7,43.3 48.9,43.7 		"/>
		<polygon fill="#341939" points="29.7,78.1 29.1,77.9 28.5,78.1 28.5,78.5 29.3,78.9 29.9,79.1 30.3,79.1 30.1,78.3 		"/>
		<polygon fill="#341939" points="50.7,49.3 50.9,48.9 51.3,48.5 51.5,47.5 51.7,46.5 51.5,46.3 51.3,46.1 50.1,49.1 49.5,50.4 
			49.1,52 49.5,51.8 49.9,51.4 50.3,50.4 		"/>
		<polygon fill="#341939" points="51.1,43.5 51.3,45.7 51.7,45.3 52.1,44.7 52.3,44.1 52.3,43.3 52.1,42.5 51.9,42 51.5,41.8 
			50.9,41.6 		"/>
		<polygon fill="#341939" points="59,62.9 58.6,62.5 58.2,61.7 58.2,62.3 58.4,62.5 58.8,63.1 59.4,63.5 59.8,63.9 59.6,63.3 		"/>
		<path fill="#341939" d="M34.7,26.3C15.5,26.3,0,41.8,0,61c0,19.2,15.5,34.7,34.7,34.7S69.4,80.2,69.4,61
			C69.4,41.8,53.9,26.3,34.7,26.3 M63.1,43.5h0.2l-6.7,6.7l-3.4,3.4L49.9,57v-0.4l0.2-0.4l0.8-1l1.4-1.6L54,52l1.8-1.8l0.6-0.8
			l0.6-1l1.6-1.2l1.4-1.4l1.6-1.4l0.8-0.4L63.1,43.5z M46.7,43.1l0.4-0.4l0.8-0.4l2-0.8l1.2-0.6l0.4-0.2h0.4l0.8,0.2l0.6,0.6
			l0.4,0.4l0.6,0.6l0.4-0.4l0.2-0.6V41l-0.2-0.6l-0.4-0.6l-0.4-0.6L53.2,39h-0.6v-0.4v-0.4V38v-0.2l0.6-0.2h0.6h0.6l0.6-0.2l0.2-0.4
			l0.2-0.4l0.2-0.2l0.4-0.2h0.6l0.6,0.4l0.4,0.4l0.4,0.6l0.4,1.4l0.2,1.4h0.2H59l0.2-0.2v-0.6V39l0.2-0.6L59.2,38L59,37.8l-0.4-0.2
			v-0.4l0.6,0.4l0.4,0.6l0.8,1.2l0.6,1.2l0.4,0.6l0.4,0.6l-0.2,0.4v0.8l-0.6,0.4l-1,0.2l-0.2,0.8l-0.6,0.4l-1,1l-1,1l-0.4,0.6
			l-0.4,0.8h-0.2L56,47.9l-0.2-0.4l0.2-1l0.4-1.4l0.8-1.8l0.2-0.8l0.2-1.2l0.2-1l-0.4-1.2l-0.2-0.4l-0.6-0.6L56,38l-0.6,0.2l0.6,1
			l0.4,1.2V41l-0.2,0.6L55.8,42l-0.4,0.6v0.4v0.4l-1,3l-1.2,2.8l-1.4,2.6L50.3,54h-0.6l-0.6,0.4l-0.8,1l-0.6-0.2h-0.2h-0.4v-0.6
			v-0.4l0.4-0.8v-1.2l0.2-1.2l0.6-2.6l0.2-1.4v-1.2l-0.2-1.2l-0.6-1.2h-0.6h-0.6L46.7,43.1z M49.3,57.2l-0.2,0.6l-0.4,0.4L48.5,58
			l0.2-0.2l0.4-0.6H49.3z M42.2,49.1l0.6-0.2l0.6,0.2l0.6,0.2l0.4,0.4l0.4,0.6l0.6,1.2l0.4-0.4l0.2-0.6v-0.6l-0.4-0.6l-0.8-1
			l-0.6-0.4l-0.4-0.2l0.8,0.2l0.8,0.2l0.4,0.4l0.4,0.8l0.2,0.8l0.2,0.8l-0.2,2l-0.4,2l-0.6,2l-0.8,1.6l-0.4,1.2H44l0.2-2.2l0.4-2.4
			v-1.2v-1.2l-0.2-1.2l-0.6-1L43.2,50l-0.6-0.2L42,49.7l-0.6-0.4L42.2,49.1z M39.2,52l0.4,0.2v0.4h-0.4V52z M33.5,56.8l0.6-0.4h1.4
			l1.6-0.2l0.6-0.2l0.4-0.4h0.2l0.6,0.8l0.8,0.6v0.4h-0.4l-0.8,0.2v0.6l0.2,0.2l0.4,0.2l0.2,0.4l-1.6-0.2l-1.6-0.4L34.3,58l-0.6-0.4
			l-0.6-0.4L33.5,56.8z M13.7,78.1l-0.4-1l-0.2-0.8v-1v-1l0.6-2l0.6-1.6L13.7,78.1z M38.6,92.7l-0.8,0.2l-2,0.2l-2,0.2l-2,0.2
			l-2-0.2l-1.8-0.4l0.8-0.4l1-0.4l1-0.2l1.2-0.2h2.2l1.2,0.2h0.2l2,0.2l1,0.2l0.4,0.2L38.6,92.7z M52.1,82.1l-0.2,1.8l-0.8,1.8
			l-1,1.6L49.5,88l-0.8,0.6h-0.6l-0.6-0.2l-1-0.2l0.2-0.4l0.4-0.4l1-0.8l1-1l0.2-0.6v-0.4l-0.2-0.4L48.9,84l-0.6-0.2h-1l-0.8,0.4
			l-1.8,1l-1.2,1l-2,0.6l-1.8,0.4L38,87l-2-0.4L35.7,86l-0.2-0.2l-0.4-0.2l-1.2-0.4l-1-0.4l-1-0.6L30.7,84l-0.4-1l-0.4-0.2l-0.4-0.2
			l-1.4,0.2L27.4,83h-0.8l-0.4-0.4L26,82.2l-0.4-1.2v-2v-2l0.8-4l0.8-3.8l0.8-3.6l-1,0.6l-0.6,0.8l-0.4,1l-0.4,1.2L25.2,72l-0.6,2.8
			l-0.4,1.2l-0.6,1l-0.4,1.2l-0.2,1v0.6v0.4l0.2,0.6l0.2,0.4l-0.2,0.6L23,82.2l-0.2,0.4L23,83l0.8,0.4l0.8,0.4l1,0.4l0.4,0.2
			l0.2,0.4l-1,1.6l-1,1.6L23,89.2l-1.6,1.2l0.4-1l0.6-1l0.4-1.2v-0.8v-0.8l-0.4-1l-0.6-1.2L21,82.2l-0.4-1.2l-0.2-1.6v-1.4l0.2-3v-3
			l-0.2-1.6l-0.4-1.4h-0.4L19.3,69l-0.4,0.2l-0.2,0.4v0.6l0.2,1.2v1.4l-0.2,1.4l-0.4,1.2l-0.4,1.2v1v0.8l0.4,1.6l0.6,1.6l0.4,1.6
			l-1-0.2l-1-0.4l-0.8-0.8l-0.4-0.8l-0.2-1.2v-1.2l0.2-3.2l0.2-3.2l0.2-2.6v-0.4h-0.2L15.5,69l0.6-0.8l0.6-0.8l0.6-0.6l0.8-0.4
			l1.8-1l1.6-0.8l1.2-1l0.6-0.4l0.6-0.4l1.4-0.4l1.4-0.4l1.4-0.4l0.6-0.4l0.4-0.6l0.8-0.2h0.8l1.4,0.4l1.2,0.4l1.4,0.4h0.8h0.8
			l1.4-0.4h0.8H39l0.6,0.4l0.6,0.4l0.8,1.4l-2.2,3l-1,1.2l-1.4,1.2l-1,0.2l-0.8,0.4L33.9,70l-0.4,0.6l-0.8,1.8l-0.6,2l-1,2.8
			l-0.2,1.4v1.2l0.8-0.4l0.8-0.4l1-0.4l1-0.4h1.6l1.6,0.4h0.8l0.8-0.2l0.6-0.2l0.6-0.4l-0.2-0.8l-0.6-0.4l-0.4-0.4l-0.6-0.6v-0.8
			L38.4,74v-0.8L38,72.4l0.6-0.8l0.6-0.8l0.4-0.4l0.2-0.4v-0.6l-0.2-0.6l-1,0.8l-1,1L35.9,73l-1.8,2.2l-1.8,2.2l0.6-1.6l0.8-1.4
			l2-2.6l2.2-2.4L40,67l1.4-1.6l1.4-1.6l2.4-2.4l2-2.6h0.2h0.4v0.2l-6.5,6.9l-1,1.2L39.8,68v0.8l1-0.4l0.8-0.6l1.6-1l1.6,2.2l1.8,2
			l1,0.8l1.2,0.8l1.4,0.6l1.4,0.6l0.4,2l0.2,2.2l0.2,2L52.1,82.1z M67.3,59.3l-0.4,1.2h-0.8l-0.6,0.2h-0.2l-0.2-0.2l-0.4-0.4h-0.4
			l-0.2,0.2l-0.2,0.4h-0.4h-0.2l-0.2-0.4v-0.6l-0.2-0.6l-0.2-0.4h-0.2l-0.4,0.2l-0.2,0.4l0.2,0.8l0.2,1.2v0.4l-0.2,0.6l-0.4,0.2
			h-0.6v0.8l-0.2,0.6l-0.4,0.4L60,64.5l-1.2,0.2h-1.4L57,64.9l-0.4,0.6l-0.4,0.4H56h-0.4l-0.6-1l-0.6-0.8l-0.8-0.6l-1-0.6l-1-0.6
			l-1-0.2l-1.4-0.4h-1.4l1.2-0.8l0.6-0.6h1.6h1l0.8-0.2v-0.4v-0.2l-0.4-0.4l-0.6-0.2l-0.2-0.2l1-0.4l1-0.2h1l1,0.4l0.4,0.6l0.4,0.2
			l0.4,0.2l0.2-0.6v-0.4L57,58.1l-0.2-0.4L56.2,57L56,56.8v-0.4l-0.6-0.2h-1l-1.6,0.6l0.2-0.4l0.2-0.2L54,56l0.8-0.2l0.4-0.2
			l0.2-0.4l-0.2-0.4l-0.4-0.2h-0.4l0.4-0.2l0.6-0.2H56l0.4,0.2l0.2-0.2h0.2v-0.6l-0.4-0.2L55.6,53l0.4-0.4h0.4l1.2-0.2h1.2l0.4-0.2
			l0.4-0.2h1.4l1-0.4l-0.2-0.4L61.3,51l-0.4-0.2l-0.2-0.2l1.2-0.2l1.2-0.2l0.2-0.6h-1.2l-1,0.2l2.2-1.4l0.2-0.4h0.2l0.4,0.2l0.2,0.2
			l0.8,0.2h0.4l0.2-0.2l0.4,0.4v0.4V50v0.4l0.4,0.2l0.2,0.2l0.2,0.2h-0.2v0.4h-0.4l-0.4-0.2l-0.2,0.2h0.2l0.6,2l0.8,2.4l0.2,1.2v1.2
			L67.3,59.3z"/>
		<path fill="#341939" d="M162.1,96.3h-1.6v-5.6c0,0,2.2,0,2.3,0c2.3,0,3.3,0.9,3.4,2.8c0,1.2-0.4,1.9-1.2,2.3
			C164.3,96.2,163.4,96.3,162.1,96.3 M171.1,104.8c-1-0.2-2.1-1.3-3.5-3.3c-0.8-1.3-1.6-2.7-2.5-4.1c2.6-0.5,3.8-1.9,3.8-4.2
			c0-1.4-0.6-2.4-1.8-3.1c-1-0.6-2.2-0.8-3.6-0.8c-0.6,0-1.5,0-2.6,0.1c-2.6,0.1-4.7,0-5.5-0.1l-0.2,0v0.5c0,0,2.6,0.4,2.6,1.3
			c0,0.2,0,0.9,0,2.1v9c0,0.8-0.1,1.4-0.2,1.6c-0.2,0.6-2.1,1-2.1,1l-0.1,0.6l0.2,0c1.3-0.1,2.5-0.2,3.8-0.2c1.2,0,2.4,0.1,3.6,0.2
			l0.2,0v-0.5c0,0-1.9-0.6-2.4-0.9c-0.3-0.2-0.3-0.6-0.3-1.3c0-0.1,0-0.5,0-1c0-0.5,0-1,0-1.3v-2.5h1.6c1.9,2.6,3.4,5,4.9,7.6l0,0.1
			c0,0,1.4-0.1,2-0.1c0.7,0,1.4,0,1.9,0.1l0.2,0l0-0.6L171.1,104.8z"/>
		<path fill="#341939" d="M65.6,103.9C65.6,103.9,65.6,103.9,65.6,103.9C65.6,103.9,65.6,103.9,65.6,103.9
			C65.6,103.9,65.6,103.9,65.6,103.9L65.6,103.9c-0.1,0-0.7,0-1.7-0.1c0-0.5,0-0.9,0-1.4v-4.6h1.5c3.1,0,4.6,1.1,4.6,3.2
			C70,103.2,68.6,103.9,65.6,103.9 M65.7,104L65.7,104C65.7,104.1,65.7,104.1,65.7,104C65.7,104.1,65.7,104.1,65.7,104 M63.8,93.2
			c0-0.8,0-1.5,0.1-2.5c0.5,0,1.2,0,1.9,0c2.4,0,3.5,0.8,3.5,2.8c0,1.9-1.2,2.7-3.8,2.7h-1.7L63.8,93.2z M71,97.9
			c-0.7-0.4-1.4-0.7-2.4-0.9c0.7-0.2,1.2-0.4,1.9-0.8c1.1-0.7,1.6-1.8,1.6-2.7c0-1.4-0.6-2.5-1.7-3.3c-1-0.7-2.2-0.9-3.7-0.9
			c0,0-1.3,0-3.9,0.1c-0.4,0-0.9,0-1.3,0c-1.5,0-2.8-0.1-2.8-0.1v0.6c0,0,2.4,0.3,2.6,1.5c0,0.2,0.1,11.8-0.1,12.2
			c-0.5,1-2.5,1.3-2.5,1.3v0.6c0,0,1.5-0.1,3.2-0.1c0.4,0,0.8,0,1.2,0c2.8,0.1,4.2,0.1,4.3,0.1c1.5,0,2.7-0.3,3.7-1
			c1.1-0.8,1.7-1.9,1.7-3.3C72.8,99.7,72.2,98.6,71,97.9"/>
		<path fill="#341939" d="M89.8,97.9c0,1.8-0.3,3.2-1,4.3c-0.8,1.3-2,2-3.6,2c-1.8,0-3.1-0.9-4-2.7c-0.6-1.4-1-3.1-1-5.2
			c0-1.7,0.4-3,1.2-4.1c0.9-1.2,2.1-1.8,3.7-1.8C88.2,90.4,89.8,92.8,89.8,97.9L89.8,97.9z M85.3,89c-2.5,0-4.5,0.8-6,2.4
			c-1.5,1.6-2.2,3.6-2.2,6.1c0,2.3,0.7,4.3,2.1,5.8c1.4,1.6,3.3,2.4,5.6,2.4h0c2.4,0,4.4-0.9,5.9-2.7c1.4-1.7,2-3.7,2-6.2h0
			c0-2.3-0.7-4.2-2-5.6C89.4,89.7,87.6,89,85.3,89"/>
		<path fill="#341939" d="M105.9,103.6h-4.6V93.4c0-1.2,0-1.9,0-2.2c0.1-1,2.8-1.5,2.8-1.5v-0.5c0,0-2.8,0.2-4.1,0.2
			c-1.3,0-3.9-0.2-3.9-0.2v0.5c0,0,2.6,0.4,2.6,1.4c0,0.2,0,0.9,0,2v8.7c0,0.9,0,1.3-0.2,1.7c-0.5,1-2.5,1.2-2.5,1.2v0.6l0.2,0
			c1.7-0.1,3.6-0.1,5.6-0.1c2.1,0,4.3,0,6.7,0.1l0.2,0l0.2-4.3h-0.7C108.3,101.1,108,103.7,105.9,103.6"/>
		<path fill="#341939" d="M119.8,85L119.8,85c0-0.7-0.6-1.2-1.2-1.2c-0.4,0-0.8,0.3-1.2,0.6l-3.4,3.9h1.3l3.8-2.2
			C119.5,85.8,119.8,85.4,119.8,85L119.8,85z"/>
		<path fill="#341939" d="M141,78c-1.8-0.2-3.6-0.2-5.4,0v-0.3c1.1-0.3,1.6-0.4,1.6-1c-0.1-3.4-0.7-7.5-0.9-9h0
			c-1.8,3.8-3.1,7-4.4,10.3l-0.5,0c-0.7-1.9-2-4.9-4.3-10.2h0c-0.4,4.2-0.5,6.7-0.6,8.7c0,0.7,0.9,0.9,1.5,1.2l0,0.3
			c-1.7-0.2-3.2-0.2-4.7,0l0-0.3c0,0,1.4-0.3,1.6-1.3c0.7-3.7,1-6.8,1-9.5c0-0.7-0.7-0.9-1.3-1.1l0-0.4c1.4,0.1,2.8,0.1,4,0.2
			c0.9,2.4,2,4.9,3.6,8.6c1.2-2.3,2.2-4.9,3.8-8.6c1.1,0,2.7-0.1,4.1-0.2v0.3c-0.7,0.3-1.1,0.4-1.1,0.4c-0.5,0.2-0.6,0.5-0.6,0.7
			c0,3.9,0.3,7.1,1.1,9.7c0.2,0.7,1,0.9,1.7,1.1V78z"/>
		<path fill="#341939" d="M121.3,78c-1.2-0.1-2.1-0.1-2.8-0.1c-0.8,0-1.8,0-2.9,0.1l0-0.3l1.1-0.4c0.5-0.2,0.7-1.2,0.7-3.3
			c0-0.3,0-1.7,0-1.8v-3.3c-0.1-1.6-0.1-2.3-0.6-2.6l-1.2-0.4l0-0.3c1.2,0.1,2.2,0.2,2.9,0.2c0.6,0,1.6,0,2.8-0.2l0,0.3l-1.3,0.5
			c-0.3,0.1-0.4,1-0.5,2.6v3.3c0,0.1,0,1.5,0,1.8c0,2.1,0.2,3.1,0.5,3.2l1.3,0.5L121.3,78z"/>
		<path fill="#341939" d="M111.4,72.4c-0.8-0.8-2.8-1.7-3.6-2.1c-1-0.5-1.5-1.2-1.5-1.9c0-0.6,0.4-1.6,1.5-1.9
			c0.2-0.1,1.6-0.4,2.4,0.2c0.6,0.5,0.7,1.9,0.7,1.9l0.3,0l0.1-2.8c0,0-1.3-0.6-2.9-0.6c-1.1,0-2.1,0.3-2.9,0.9
			c-0.9,0.7-1.8,1.7-1.2,3.5c0.4,1.4,3,2.7,3.8,3.1c2.1,1.1,1.6,2.7,1.6,2.7c-0.2,0.7-0.9,1.1-1.6,1.3c-0.5,0.1-2.5,0.1-2.8-0.3
			c-0.2-0.3-0.4-2.3-0.4-2.3l-0.5,0.1l-0.3,3.3c0,0,1.1,0.5,2.9,0.6c1.3,0,2.5-0.3,3.4-0.8c1.1-0.6,1.7-1.6,1.7-2.9
			C111.9,73,111.4,72.4,111.4,72.4"/>
		<path fill="#341939" d="M148.6,65c-1.9,0-3.5,0.6-4.6,1.9c-1.1,1.2-1.7,2.8-1.7,4.7c0,1.8,0.5,3.3,1.6,4.5
			c1.1,1.2,2.6,1.8,4.4,1.8h0c1.9,0,3.4-0.7,4.5-2.1c1-1.3,1.6-2.9,1.6-4.8c0-1.8-0.5-3.2-1.6-4.3C151.7,65.6,150.3,65,148.6,65
			 M152,72c0,1.4-0.3,2.5-0.8,3.3c-0.6,1-1.5,1.5-2.8,1.5c-1.4,0-2.4-0.7-3.1-2.1c-0.5-1.1-0.7-2.4-0.7-4c0-1.3,0.3-2.3,0.9-3.2
			c0.7-0.9,1.6-1.4,2.8-1.4C150.8,66.2,152,68,152,72L152,72z"/>
		<path fill-rule="evenodd" clip-rule="evenodd" fill="#341939" d="M170.5,65.8c-0.4,0.1-0.6,0.2-1,0.4c-0.5,0.2-0.5,0.9-0.5,1.2
			c-0.1,1.6-0.1,3.3-0.1,5.5c0,0.4,0,2,0.1,5.2h-1.1c-1.2-1.5-2-2.6-3.5-4.6c-1.3-1.7-2-2.9-3.3-4.7l-0.2-0.3c0,0,0,2.8,0,4
			c0,1.1,0,3.4,0.1,4.3c0.2,0.8,1.2,0.7,1.6,0.8l0,0.4c-1.6-0.2-3.3-0.2-4.9,0v-0.4l0.9-0.3c0.9-0.2,0.8-3.1,0.8-6.3l-0.1-3.6
			c0-1.1-1-1.3-1.7-1.5l0-0.3c1.2,0.2,2.7,0.2,3.8,0c0.7,1.3,1.8,3.1,3.2,4.9c1.1,1.5,1.8,2.4,2.9,3.9v-0.8c0,0-0.1-4.3-0.1-4.7
			c0-0.7,0-1.7-0.2-2c-0.2-0.5-0.7-0.6-1.6-0.9l0-0.3c1.5,0.2,3.1,0.2,4.9,0L170.5,65.8z"/>
		<path fill="#341939" d="M152.5,61.8L152.5,61.8c0-0.5-0.4-0.8-0.9-0.8c-0.3,0-0.6,0.2-0.8,0.4l-2.3,2.7h0.9l2.6-1.5
			C152.3,62.4,152.5,62.1,152.5,61.8L152.5,61.8z"/>
		<path fill="#341939" d="M115.9,89.5c-0.9,0-2.2-0.1-3.7-0.2l-0.2,0v0.5c0,0,2.2,0.5,2.5,1.6c0.1,0.5,0.1,1.5,0.1,2.5
			c0,0,0.1,3.7,0,5.7c0,2.7-0.1,3.9-0.8,4.5c-0.6,0.5-1.8,0.7-1.8,0.7v0.7l0.2,0c1.5-0.1,2.7-0.2,3.7-0.2c0.9,0,2.1,0.1,3.6,0.2
			l0.2,0v-0.7c0,0-1.2-0.2-1.8-0.7c-0.5-0.3-0.8-1.7-0.8-4.4c0-0.4,0-5.5,0-5.7c0-1,0-2,0.1-2.5c0.1-1.3,2.5-1.6,2.5-1.6v-0.5
			l-0.2,0C117.9,89.4,116.7,89.5,115.9,89.5"/>
		<path fill="#341939" d="M137.9,89.8l0.1,0v-0.5l-0.2,0c-0.7,0.1-1.5,0.1-2.3,0.1c-0.8,0-1.7,0-2.6-0.1l-0.2,0v0.5l0.1,0
			c0.7,0.2,1.6,0.5,1.5,0.8c-0.3,1.5-2.9,8.2-3.6,9.8c-0.5-1.2-3.9-9.5-3.9-9.7c0,0-0.2-0.5,1.8-0.9l0.1,0v-0.5c0,0-2.3,0.2-3.3,0.2
			c-2.7,0-3.5-0.2-3.5-0.2v0.5c0,0,1.6,0.4,2,1.4c1.7,3.8,3.6,8.6,5.6,14.4l0,0.1h0.8l0-0.1c1.5-4.1,4.7-12.5,5.7-14.4
			C136.5,90.5,137.1,90,137.9,89.8"/>
		<path fill="#341939" d="M142.3,99l2.4-6.1l2.3,6.1L142.3,99z M146,88.8L146,88.8l-1.2-0.1l0,0.1c-2.5,6-3.3,7.8-5.5,12.7
			c-0.3,0.7-0.5,1.3-0.8,1.9c-0.4,0.8-2,1.3-2,1.3v0.6l0.2,0c0.9-0.1,1.8-0.1,2.7-0.1c0.9,0,1.9,0,2.8,0.1l0.2,0v-0.6l-2.1-0.8
			c0.7-1.8,1.1-2.9,1.5-3.9l2.7,0l3,0c0.4,0.9,0.8,2.3,1.3,3.9c-0.7,0.3-1.4,0.5-2.2,0.7l-0.1,0v0.7l0.2,0c1.1-0.1,2.2-0.1,3.5-0.1
			c1.2,0,2.5,0,3.7,0.1l0.2,0v-0.6c0,0-1.4-0.4-1.9-0.9c-0.4-0.4-0.9-1.9-0.9-1.9C148,94,146.8,91,146,88.8"/>
		<path fill="#341939" d="M169.1,43.1c-0.1,0.2-0.2,0.4-0.3,0.7c-0.1,0.2-0.3,0.3-0.6,0.3h-1.6v-3.6c0-0.4,0-0.7,0-0.7
			c0-0.1,0.1-0.2,0.2-0.3c0.2-0.1,0.5-0.1,0.7-0.2v-0.1c-0.9,0.1-1.8,0.1-2.5,0v0.1c0.2,0.1,0.4,0.1,0.7,0.2c0.1,0,0.2,0.1,0.2,0.2
			c0,0.1,0,0.3,0,0.7v3c0,0.3,0,0.5-0.1,0.6c0,0.1-0.1,0.2-0.2,0.2c-0.2,0.1-0.4,0.1-0.6,0.2v0.1c1.1-0.1,2.5-0.1,4.1,0L169.1,43.1
			L169.1,43.1z M159.8,42.4l1-2.2l0.9,2.2H159.8z M163.8,44.3l-0.7-0.2c-1.1-2.7-1.8-4.4-2.1-5.1h-0.2c-1,2.3-1.7,4-2.2,5.1
			c-0.2,0.1-0.4,0.2-0.6,0.3v0.1c0.6-0.1,1.2-0.1,1.9,0v-0.1l-0.7-0.3c0.2-0.6,0.3-1.1,0.5-1.4h1h1c0.2,0.3,0.3,0.8,0.5,1.4
			c-0.3,0.1-0.5,0.2-0.8,0.3v0.1c0.7-0.1,1.5-0.1,2.4,0V44.3z M157,39.1c-0.8,0.1-1.5,0.1-2.1,0v0.1c0.4,0.2,0.6,0.3,0.7,0.4
			c0.1,0.1,0.2,0.3,0.2,0.5v0.3V41v2.1l0,0c-0.5-0.6-1-1.3-1.5-1.9c-0.6-0.8-1-1.4-1.3-2c-0.5,0.1-1,0.1-1.5,0v0.1
			c0.3,0.1,0.5,0.2,0.8,0.3l0.1,0.2v1.6c0,0.9,0,1.4,0,1.5c0,0.8-0.1,1.2-0.3,1.3l-0.6,0.2v0.1c0.7-0.1,1.4-0.1,2.1,0v-0.1
			c-0.2,0-0.3-0.1-0.5-0.1c-0.2-0.1-0.3-0.2-0.4-0.3c-0.1-0.3-0.1-0.6-0.1-1.1c0-0.2,0-0.5,0-0.9c0-0.4,0-0.7,0-0.8v-1
			c0.6,0.8,1.1,1.5,1.7,2.3c0.7,0.9,1.2,1.7,1.6,2.3h0.2c0-1.4,0-2.2,0-2.4c0-1,0-1.8,0.1-2.5c0-0.1,0.1-0.2,0.3-0.3
			c0.2,0,0.3-0.1,0.5-0.2V39.1z M148.7,43.6c-0.3,0.5-0.7,0.7-1.3,0.7c-0.7,0-1.1-0.3-1.5-1c-0.2-0.5-0.3-1.1-0.3-1.8
			c0-0.6,0.1-1.1,0.4-1.5c0.3-0.4,0.8-0.7,1.3-0.7c1.2,0,1.7,0.9,1.7,2.7C149.1,42.6,148.9,43.2,148.7,43.6 M149.2,39.8
			c-0.5-0.5-1.1-0.7-1.8-0.7c-0.8,0-1.5,0.3-2,0.8c-0.5,0.5-0.7,1.2-0.7,2c0,0.8,0.2,1.4,0.7,1.9c0.5,0.5,1.1,0.8,1.8,0.8
			c0.8,0,1.5-0.3,1.9-0.9c0.4-0.5,0.7-1.2,0.7-2C149.9,40.9,149.7,40.3,149.2,39.8 M142.9,44.3l-0.6-0.2c-0.2-0.1-0.3-0.5-0.3-1.5
			c0-0.1,0-0.3,0-0.5v-0.3c0-0.8,0-1.2,0-1.3c0-0.7,0.1-1,0.2-1.1l0.7-0.2v-0.1c-0.5,0-0.9,0.1-1.2,0.1c-0.3,0-0.7,0-1.2-0.1v0.1
			l0.7,0.2c0.1,0,0.2,0.4,0.2,1.1c0,0.1,0,0.5,0,1.3v0.3c0,0.2,0,0.3,0,0.5c0,0.9-0.1,1.4-0.3,1.5l-0.6,0.2v0.1
			c0.5,0,0.9-0.1,1.2-0.1c0.3,0,0.7,0,1.2,0.1V44.3z M138.2,43h-0.1l-0.4,1c-0.3,0.1-0.6,0.2-1,0.2c-0.7,0-1.2-0.3-1.5-0.8
			c-0.3-0.4-0.5-1-0.5-1.7c0-0.7,0.1-1.3,0.4-1.7c0.3-0.5,0.9-0.7,1.5-0.7c0.3,0,0.6,0.1,1,0.2l0.3,0.9h0.1v-1.3
			c-0.4-0.1-0.8-0.1-1.3-0.1c-0.8,0-1.5,0.3-2.1,0.9c-0.6,0.6-0.9,1.2-0.9,2c0,0.8,0.3,1.4,0.9,1.9c0.5,0.5,1.2,0.7,2,0.7
			c0.4,0,0.8-0.1,1.4-0.2V43z M128.5,42.4l1-2.2l0.9,2.2H128.5z M132.5,44.3l-0.7-0.2c-1.1-2.7-1.8-4.4-2.1-5.1h-0.2
			c-1,2.3-1.7,4-2.2,5.1c-0.2,0.1-0.4,0.2-0.6,0.3v0.1c0.6-0.1,1.2-0.1,1.9,0v-0.1l-0.7-0.3c0.2-0.6,0.3-1.1,0.5-1.4h1h1
			c0.2,0.3,0.3,0.8,0.5,1.4c-0.3,0.1-0.5,0.2-0.8,0.3v0.1c0.7-0.1,1.5-0.1,2.4,0V44.3z M126.1,36.5c-1.1,0.1-2.2,0.1-3.2,0v0.2
			c0.6,0.2,0.9,0.4,1.1,0.6c0.2,0.2,0.2,0.4,0.2,0.8v0.5v0.7v3.1l0,0c-0.7-1-1.5-1.9-2.2-2.9c-0.9-1.2-1.6-2.2-2-3
			c-0.7,0.1-1.5,0.1-2.3,0v0.2c0.4,0.1,0.8,0.3,1.2,0.4l0.2,0.2v2.5c0,1.3,0,2.1,0,2.2c0,1.2-0.2,1.8-0.4,1.9l-0.9,0.4v0.2
			c1.1-0.1,2.1-0.1,3.2,0v-0.2c-0.3-0.1-0.5-0.1-0.7-0.2c-0.3-0.1-0.5-0.3-0.5-0.5c-0.1-0.4-0.1-0.9-0.1-1.6c0-0.3,0-0.7,0-1.3
			c0-0.6,0-1,0-1.2v-1.5c0.8,1.1,1.7,2.3,2.5,3.4c1,1.3,1.8,2.5,2.5,3.4h0.3c0-2.1-0.1-3.3-0.1-3.6c0-1.4,0.1-2.7,0.2-3.7
			c0-0.2,0.2-0.4,0.5-0.5c0.2-0.1,0.5-0.2,0.7-0.2V36.5z M111,43.6c-0.3,0.5-0.7,0.7-1.3,0.7c-0.7,0-1.1-0.3-1.5-1
			c-0.2-0.5-0.3-1.1-0.3-1.8c0-0.6,0.1-1.1,0.4-1.5c0.3-0.4,0.8-0.7,1.3-0.7c1.2,0,1.7,0.9,1.7,2.7C111.3,42.6,111.2,43.2,111,43.6
			 M111.5,39.8c-0.5-0.5-1.1-0.7-1.8-0.7c-0.8,0-1.5,0.3-2,0.8c-0.5,0.5-0.7,1.2-0.7,2c0,0.8,0.2,1.4,0.7,1.9
			c0.5,0.5,1.1,0.8,1.9,0.8c0.8,0,1.5-0.3,1.9-0.9c0.4-0.5,0.7-1.2,0.7-2C112.2,40.9,111.9,40.3,111.5,39.8 M105.2,44.3l-0.6-0.2
			c-0.2-0.1-0.3-0.5-0.3-1.5c0-0.1,0-0.3,0-0.5v-0.3c0-0.8,0-1.2,0-1.3c0-0.7,0.1-1,0.2-1.1l0.7-0.2v-0.1c-0.5,0-0.9,0.1-1.2,0.1
			c-0.3,0-0.7,0-1.2-0.1v0.1l0.7,0.2c0.1,0,0.2,0.4,0.2,1.1c0,0.1,0,0.5,0,1.3v0.3c0,0.2,0,0.3,0,0.5c0,0.9-0.1,1.4-0.3,1.5
			l-0.6,0.2v0.1c0.5,0,0.9-0.1,1.2-0.1c0.3,0,0.7,0,1.2,0.1V44.3z M101.2,44.3c-0.3-0.1-0.5-0.1-0.5-0.1c-0.1-0.1-0.2-0.2-0.3-0.4
			c-0.3-1.1-0.5-2.5-0.5-4.1c0-0.1,0.1-0.2,0.3-0.3l0.5-0.2v-0.1c-0.6,0-1.1,0.1-1.6,0.1c-0.7,1.6-1.2,2.9-1.8,3.9
			c-0.7-1.6-1.3-2.8-1.7-3.8c-0.5,0-1,0-1.5-0.1v0.1c0.3,0.1,0.4,0.1,0.4,0.1c0.2,0.1,0.2,0.2,0.2,0.3c0,1.1-0.1,2.5-0.4,4
			c0,0.1-0.1,0.2-0.1,0.3c0,0-0.1,0.1-0.3,0.1l-0.4,0.2v0.1c0.6-0.1,1.3-0.1,2,0v-0.1c-0.3-0.1-0.4-0.1-0.5-0.2
			C95.1,44.1,95,44,95,43.8c0-0.9,0.1-2.2,0.3-4c1,2.2,1.7,3.8,2,4.6h0.1c0.6-1.4,1.2-2.9,2-4.5h0c0.1,0.7,0.2,1.3,0.3,2
			c0.1,0.8,0.2,1.4,0.2,2c0,0.1-0.3,0.3-0.8,0.4v0.1c0.8-0.1,1.5-0.1,2.3,0V44.3z M92,43.1c-0.1,0.4-0.2,0.7-0.3,0.7
			c-0.1,0.1-0.2,0.2-0.3,0.2c0,0-0.3,0-0.8,0c-0.1,0-0.3,0-0.6,0c-0.3,0-0.5,0-0.6,0c0-0.6,0-0.9,0-1.1v-1.1h0.9h0.4h0.3
			c0.2,0,0.3,0,0.4,0.1c0.1,0.1,0.1,0.3,0.3,0.7h0.1c0-0.7,0-1.3,0-1.9h-0.1c-0.1,0.4-0.2,0.6-0.3,0.6c-0.1,0.1-0.2,0.1-0.4,0.1
			h-0.3h-0.4h-0.9v-1c0-0.2,0-0.5,0-0.9l1.1,0c0.1,0,0.2,0,0.4,0c0.1,0,0.2,0,0.3,0c0.2,0,0.3,0,0.4,0.1c0,0.1,0.1,0.3,0.3,0.7H92
			c0-0.4,0-0.8,0-1.2c-1.4,0.1-2.8,0.1-4.2,0v0.1c0.2,0.1,0.4,0.1,0.7,0.2c0.1,0,0.2,0.1,0.2,0.2c0,0.1,0,0.3,0,0.7v3
			c0,0.3,0,0.5-0.1,0.6c0,0.1-0.1,0.2-0.3,0.2c-0.2,0.1-0.4,0.1-0.6,0.2v0.1c0.8-0.1,1.6-0.1,2.3-0.1c0.7,0,1.3,0,2,0.1
			c0-0.4,0-0.9,0.1-1.4H92z M84.5,41.4c-0.2,0.1-0.6,0.2-1,0.2h-0.6v-2.1h0.8c0.8,0,1.3,0.3,1.3,1C84.9,40.9,84.8,41.2,84.5,41.4
			 M86.5,44.3c-0.4-0.1-0.8-0.4-1.2-1.1c-0.3-0.5-0.6-1-0.9-1.4c0.9-0.1,1.3-0.6,1.3-1.4c0-0.4-0.2-0.8-0.6-1
			c-0.3-0.2-0.7-0.3-1.2-0.3c-0.2,0-0.5,0-0.9,0c-0.4,0-0.7,0-0.9,0c-0.3,0-0.6,0-0.9,0v0.1c0.2,0.1,0.4,0.1,0.7,0.2
			c0.1,0.1,0.2,0.1,0.2,0.3c0,0.1,0,0.3,0,0.7v3c0,0.3,0,0.5-0.1,0.6c0,0.1-0.1,0.2-0.2,0.2c-0.2,0.1-0.4,0.1-0.6,0.2v0.1
			c0.9-0.1,1.7-0.1,2.5,0v-0.1c-0.4-0.1-0.7-0.2-0.8-0.3c-0.1-0.1-0.1-0.2-0.1-0.5v-0.3v-0.4v-1h0.6c0.7,0.9,1.2,1.8,1.8,2.6
			c0.4,0,0.8,0,1.2,0V44.3z M78,40c-0.4,0.3-0.8,0.4-1.3,0.4c-0.3,0-0.6,0-0.8,0V37c0.4,0,0.7,0,1,0c0.6,0,1,0.1,1.3,0.4
			c0.3,0.3,0.5,0.7,0.5,1.3C78.6,39.2,78.4,39.7,78,40 M78.9,37c-0.5-0.3-1.1-0.5-1.8-0.5c0,0-0.6,0-1.8,0.1c-0.7,0-1.3,0-1.9-0.1
			v0.2c0.3,0.1,0.7,0.2,1,0.3c0.2,0.1,0.3,0.2,0.3,0.4c0,0.1,0,0.4,0,1v4.5c0,0.4,0,0.7-0.1,0.9c-0.1,0.1-0.2,0.2-0.4,0.3
			c-0.3,0.1-0.6,0.2-0.9,0.3v0.2c1.3-0.1,2.5-0.1,3.7,0v-0.2c-0.7-0.2-1-0.4-1.1-0.4c-0.2-0.1-0.2-0.3-0.2-0.6c0-0.1,0-0.2,0-0.5
			c0-0.3,0-0.5,0-0.7v-1.3h0.7c2.1,0,3.2-0.7,3.2-2.1C79.7,38,79.5,37.4,78.9,37"/>
		<path fill="#341939" d="M169.2,55.8c-0.3,0.5-0.7,0.7-1.3,0.7c-0.7,0-1.1-0.3-1.5-1c-0.2-0.5-0.3-1.1-0.3-1.8
			c0-0.6,0.1-1.1,0.4-1.5c0.3-0.4,0.8-0.7,1.3-0.7c1.2,0,1.7,0.9,1.7,2.7C169.6,54.9,169.5,55.4,169.2,55.8 M169.7,52.1
			c-0.5-0.5-1.1-0.7-1.8-0.7c-0.8,0-1.5,0.3-2,0.8c-0.5,0.5-0.7,1.2-0.7,2c0,0.8,0.2,1.4,0.7,1.9c0.5,0.5,1.1,0.8,1.9,0.8
			c0.8,0,1.5-0.3,1.9-0.9c0.4-0.5,0.7-1.2,0.7-2.1C170.4,53.2,170.2,52.5,169.7,52.1 M164.1,56.6c-0.3-0.1-0.5-0.1-0.5-0.1
			c-0.1-0.1-0.2-0.2-0.3-0.4c-0.3-1.1-0.5-2.5-0.5-4.1c0-0.1,0.1-0.2,0.3-0.3l0.5-0.2v-0.1c-0.6,0-1.1,0.1-1.6,0.1
			c-0.7,1.6-1.2,2.9-1.8,3.9c-0.7-1.6-1.3-2.8-1.7-3.8c-0.5,0-1,0-1.5-0.1v0.1c0.3,0.1,0.4,0.1,0.4,0.1c0.2,0.1,0.2,0.2,0.2,0.3
			c0,1.1-0.1,2.5-0.4,4c0,0.1-0.1,0.2-0.1,0.3c0,0-0.1,0.1-0.3,0.1l-0.4,0.2v0.1c0.6-0.1,1.3-0.1,2,0v-0.1c-0.3-0.1-0.4-0.1-0.5-0.2
			c-0.2-0.1-0.3-0.2-0.3-0.3c0-0.9,0.1-2.2,0.3-4c1,2.2,1.6,3.8,2,4.6h0.1c0.6-1.4,1.2-2.9,2-4.5h0c0.1,0.7,0.2,1.3,0.3,2
			c0.1,0.8,0.2,1.4,0.2,2c0,0.1-0.3,0.3-0.8,0.4v0.1c0.8-0.1,1.5-0.1,2.3,0V56.6z M154.5,54.1c-0.4-0.2-0.8-0.4-1.2-0.6
			c-0.4-0.2-0.7-0.5-0.7-0.9c0-0.3,0.1-0.5,0.3-0.7c0.2-0.2,0.4-0.3,0.7-0.3c0.3,0,0.6,0.1,0.8,0.2l0.3,0.9h0.1l0-1.1
			c-0.4-0.2-0.8-0.3-1.2-0.3c-0.5,0-0.9,0.1-1.2,0.4c-0.4,0.3-0.6,0.7-0.6,1.1c0,0.4,0.2,0.8,0.7,1.1c0.4,0.2,0.8,0.4,1.2,0.7
			c0.4,0.3,0.7,0.5,0.7,0.9c0,0.4-0.1,0.6-0.4,0.8c-0.2,0.2-0.5,0.3-0.9,0.3c-0.3,0-0.6-0.1-0.8-0.2l-0.3-1.1h-0.1l-0.1,1.3
			c0.4,0.2,0.8,0.2,1.2,0.2c0.6,0,1.1-0.1,1.4-0.3c0.5-0.3,0.7-0.7,0.7-1.2C155.1,54.8,154.9,54.4,154.5,54.1 M149.9,56.6l-0.6-0.2
			c-0.2-0.1-0.3-0.5-0.3-1.5c0-0.1,0-0.3,0-0.5v-0.3c0-0.8,0-1.2,0-1.3c0-0.7,0.1-1,0.2-1.1l0.7-0.2v-0.1c-0.5,0-1,0.1-1.2,0.1
			c-0.3,0-0.7,0-1.2-0.1v0.1l0.7,0.2c0.1,0,0.2,0.4,0.2,1.1c0,0.1,0,0.5,0,1.3v0.3c0,0.2,0,0.3,0,0.5c0,0.9-0.1,1.4-0.3,1.5
			l-0.6,0.2v0.1c0.5,0,0.9-0.1,1.2-0.1c0.3,0,0.7,0,1.2,0.1V56.6z M142.9,56.5c-0.1,0-0.3,0-0.6,0c0-0.4,0-0.6,0-0.8v-2.8
			c0-0.2,0-0.6,0-1.1c0.2,0,0.4-0.1,0.5-0.1c0.7,0,1.3,0.2,1.6,0.7c0.4,0.4,0.5,1,0.5,1.7C145,55.7,144.3,56.5,142.9,56.5 M145,52.2
			c-0.5-0.5-1.2-0.8-1.9-0.8c0,0-0.4,0-1.2,0c-0.5,0-0.9,0-1.2,0v0.1c0.2,0.1,0.4,0.1,0.6,0.2c0.1,0,0.2,0.1,0.2,0.2
			c0,0.1,0,0.3,0,0.7v3c0,0.3,0,0.5-0.1,0.6c0,0.1-0.1,0.2-0.3,0.2c-0.2,0.1-0.4,0.1-0.6,0.2v0.1c0.3,0,0.6,0,0.9,0
			c0.2,0,0.5,0,0.9,0c0.4,0,0.7,0,0.9,0c0.7,0,1.4-0.3,1.8-0.8c0.5-0.5,0.7-1.1,0.7-1.9C145.8,53.3,145.5,52.7,145,52.2 M137.7,55.8
			c-0.3,0.5-0.7,0.7-1.3,0.7c-0.7,0-1.1-0.3-1.5-1c-0.2-0.5-0.3-1.1-0.3-1.8c0-0.6,0.1-1.1,0.4-1.5c0.3-0.4,0.8-0.7,1.3-0.7
			c1.2,0,1.7,0.9,1.7,2.7C138,54.9,137.9,55.4,137.7,55.8 M138.2,52.1c-0.5-0.5-1.1-0.7-1.8-0.7c-0.8,0-1.5,0.3-2,0.8
			c-0.5,0.5-0.7,1.2-0.7,2c0,0.8,0.2,1.4,0.7,1.9c0.5,0.5,1.1,0.8,1.9,0.8c0.8,0,1.5-0.3,1.9-0.9c0.4-0.5,0.7-1.2,0.7-2.1
			C138.9,53.2,138.7,52.5,138.2,52.1 M132.1,56.6l-0.6-0.2c-0.2-0.1-0.3-0.5-0.3-1.5c0-0.1,0-0.3,0-0.5v-0.3c0-0.8,0-1.2,0-1.3
			c0-0.7,0.1-1,0.2-1.1l0.7-0.2v-0.1c-0.5,0-1,0.1-1.2,0.1c-0.3,0-0.7,0-1.2-0.1v0.1l0.7,0.2c0.1,0,0.2,0.4,0.2,1.1
			c0,0.1,0,0.5,0,1.3v0.3c0,0.2,0,0.3,0,0.5c0,0.9-0.1,1.4-0.3,1.5l-0.6,0.2v0.1c0.5,0,0.9-0.1,1.2-0.1c0.3,0,0.7,0,1.2,0.1V56.6z
			 M126.2,53.7c-0.2,0.1-0.6,0.2-1,0.2h-0.6v-2.1h0.8c0.8,0,1.3,0.3,1.3,1C126.6,53.2,126.5,53.5,126.2,53.7 M128.2,56.6
			c-0.4-0.1-0.8-0.4-1.2-1.1c-0.3-0.5-0.6-1-0.9-1.4c0.9-0.1,1.3-0.6,1.3-1.4c0-0.4-0.2-0.8-0.6-1c-0.3-0.2-0.7-0.3-1.2-0.3
			c-0.2,0-0.5,0-0.9,0c-0.4,0-0.7,0-0.9,0c-0.3,0-0.6,0-0.9,0v0.1c0.2,0.1,0.4,0.1,0.7,0.2c0.1,0.1,0.2,0.1,0.2,0.3
			c0,0.1,0,0.3,0,0.7v3c0,0.3,0,0.5-0.1,0.6c0,0.1-0.1,0.2-0.2,0.2c-0.2,0.1-0.4,0.1-0.6,0.2v0.1c0.9-0.1,1.7-0.1,2.5,0v-0.1
			c-0.4-0.1-0.7-0.2-0.8-0.3c-0.1-0.1-0.1-0.2-0.1-0.5v-0.3v-0.4v-0.9h0.6c0.7,0.9,1.2,1.8,1.8,2.6c0.4,0,0.8,0,1.2,0V56.6z
			 M121.2,55.4c-0.1,0.4-0.2,0.7-0.3,0.7c-0.1,0.1-0.2,0.2-0.3,0.2c0,0-0.3,0-0.8,0c-0.1,0-0.3,0-0.6,0c-0.3,0-0.5,0-0.6,0
			c0-0.6,0-0.9,0-1.1v-1.1h0.9h0.4h0.3c0.2,0,0.3,0,0.4,0.1c0.1,0.1,0.1,0.3,0.3,0.7h0.1c0-0.7,0-1.3,0-1.9h-0.1
			c-0.1,0.4-0.2,0.6-0.3,0.6c-0.1,0.1-0.2,0.1-0.4,0.1h-0.3h-0.4h-0.9v-1c0-0.2,0-0.5,0-0.9l1.2,0c0.1,0,0.2,0,0.4,0
			c0.1,0,0.2,0,0.3,0c0.2,0,0.3,0,0.4,0.1c0,0.1,0.1,0.3,0.3,0.7h0.1c0-0.4,0-0.8,0-1.2c-1.4,0.1-2.8,0.1-4.2,0v0.1
			c0.2,0.1,0.4,0.1,0.7,0.2c0.1,0,0.2,0.1,0.2,0.2c0,0.1,0,0.3,0,0.7v3c0,0.3,0,0.5-0.1,0.6c0,0.1-0.1,0.2-0.3,0.2
			c-0.2,0.1-0.4,0.1-0.6,0.2v0.1c0.8-0.1,1.6-0.1,2.3-0.1c0.7,0,1.3,0,2,0.1c0-0.4,0-0.9,0-1.4H121.2z M113.9,52.3
			c-0.3,0.3-0.8,0.4-1.3,0.4c-0.3,0-0.6,0-0.8,0v-3.4c0.4,0,0.7,0,1,0c0.6,0,1,0.1,1.3,0.4c0.3,0.3,0.5,0.7,0.5,1.3
			C114.5,51.5,114.3,52,113.9,52.3 M114.9,49.3c-0.5-0.3-1.1-0.5-1.8-0.5c0,0-0.6,0-1.8,0.1c-0.7,0-1.3,0-1.9-0.1V49
			c0.3,0.1,0.7,0.2,1,0.3c0.2,0.1,0.3,0.2,0.3,0.4c0,0.1,0,0.4,0,1v4.5c0,0.4,0,0.7-0.1,0.9c-0.1,0.1-0.2,0.2-0.4,0.3
			c-0.3,0.1-0.6,0.2-0.9,0.3v0.2c1.3-0.1,2.5-0.1,3.7,0v-0.2c-0.7-0.2-1-0.4-1.1-0.4c-0.2-0.1-0.2-0.3-0.2-0.6c0-0.1,0-0.2,0-0.5
			c0-0.3,0-0.5,0-0.7v-1.3h0.7c2.1,0,3.2-0.7,3.2-2.1C115.6,50.2,115.4,49.7,114.9,49.3 M103.1,55.4c-0.1,0.4-0.2,0.7-0.3,0.7
			c-0.1,0.1-0.2,0.2-0.3,0.2c0,0-0.3,0-0.8,0c-0.1,0-0.3,0-0.6,0c-0.3,0-0.5,0-0.6,0c0-0.6,0-0.9,0-1.1v-1.1h0.8h0.4h0.3
			c0.2,0,0.3,0,0.4,0.1c0.1,0.1,0.1,0.3,0.3,0.7h0.1c0-0.7,0-1.3,0-1.9h-0.1c-0.1,0.4-0.2,0.6-0.3,0.6c-0.1,0.1-0.2,0.1-0.4,0.1
			h-0.3h-0.4h-0.8v-1c0-0.2,0-0.5,0-0.9l1.1,0c0.1,0,0.2,0,0.4,0c0.1,0,0.2,0,0.3,0c0.2,0,0.3,0,0.4,0.1c0,0.1,0.1,0.3,0.3,0.7h0.1
			c0-0.4,0-0.8,0-1.2c-1.4,0.1-2.8,0.1-4.2,0v0.1c0.2,0.1,0.4,0.1,0.7,0.2c0.1,0,0.2,0.1,0.2,0.2c0,0.1,0,0.3,0,0.7v3
			c0,0.3,0,0.5-0.1,0.6c0,0.1-0.1,0.2-0.2,0.2c-0.2,0.1-0.4,0.1-0.6,0.2v0.1c0.8-0.1,1.6-0.1,2.3-0.1c0.7,0,1.3,0,2,0.1
			c0-0.4,0-0.9,0-1.4H103.1z M94.4,56.5c-0.1,0-0.3,0-0.6,0c0-0.4,0-0.6,0-0.8v-2.8c0-0.2,0-0.6,0-1.1c0.2,0,0.4-0.1,0.5-0.1
			c0.7,0,1.3,0.2,1.6,0.7c0.4,0.4,0.5,1,0.5,1.7C96.5,55.7,95.8,56.5,94.4,56.5 M96.5,52.2c-0.5-0.5-1.2-0.8-1.9-0.8
			c0,0-0.4,0-1.2,0c-0.5,0-0.9,0-1.2,0v0.1c0.2,0.1,0.4,0.1,0.7,0.2c0.1,0,0.2,0.1,0.2,0.2c0,0.1,0,0.3,0,0.7v3c0,0.3,0,0.5-0.1,0.6
			c0,0.1-0.1,0.2-0.3,0.2c-0.2,0.1-0.4,0.1-0.6,0.2v0.1c0.3,0,0.6,0,0.9,0c0.2,0,0.5,0,0.9,0c0.4,0,0.7,0,0.9,0
			c0.7,0,1.4-0.3,1.8-0.8c0.5-0.5,0.7-1.1,0.7-1.9C97.3,53.3,97.1,52.7,96.5,52.2"/>
	</g>
</g>
</svg>
